<?xml version="1.0" encoding="utf-8"?>
<!-- Generator: Adobe Illustrator 22.0.1, SVG Export Plug-In . SVG Version: 6.00 Build 0)  -->
<svg version="1.1" id="Layer_1" xmlns="http://www.w3.org/2000/svg" xmlns:xlink="http://www.w3.org/1999/xlink" x="0px" y="0px"
	 viewBox="0 0 128 128" style="enable-background:new 0 0 128 128;" xml:space="preserve">
<style type="text/css">
	.st0{fill:#FFFFFF;}
</style>
<path class="st0" d="M93.5,111.4c-0.3,0-0.6-0.1-0.9-0.2L64,96.6l-28.6,14.6c-0.7,0.3-1.5,0.3-2.1-0.2c-0.6-0.4-0.9-1.2-0.8-1.9
	l5-31.7L14.8,54.7c-0.5-0.5-0.7-1.3-0.5-2c0.2-0.7,0.8-1.2,1.6-1.4l31.7-5l14.6-28.6c0.3-0.7,1-1.1,1.8-1.1s1.4,0.4,1.8,1.1
	l14.6,28.6l31.7,5c0.7,0.1,1.4,0.6,1.6,1.4c0.2,0.7,0,1.5-0.5,2L90.5,77.4l5,31.7c0.1,0.7-0.2,1.5-0.8,1.9
	C94.3,111.3,93.9,111.4,93.5,111.4z M20.4,54.6l20.6,20.6c0.5,0.5,0.7,1.1,0.6,1.7l-4.6,28.8l26-13.2c0.6-0.3,1.2-0.3,1.8,0l26,13.2
	L86.4,77c-0.1-0.6,0.1-1.3,0.6-1.7l20.6-20.6l-28.8-4.6c-0.6-0.1-1.2-0.5-1.5-1.1L64,23L50.7,49c-0.3,0.6-0.8,1-1.5,1.1L20.4,54.6z"
	/>
</svg>
