<?xml version="1.0" encoding="utf-8"?>
<!-- Generator: Adobe Illustrator 22.0.1, SVG Export Plug-In . SVG Version: 6.00 Build 0)  -->
<svg version="1.1" id="Layer_1" xmlns="http://www.w3.org/2000/svg" xmlns:xlink="http://www.w3.org/1999/xlink" x="0px" y="0px"
	 viewBox="0 0 128 128" style="enable-background:new 0 0 128 128;" xml:space="preserve">
<style type="text/css">
	.st0{fill:#FFFFFF;}
</style>
<g>
	<path class="st0" d="M85.8,75.2l2.7-6.8h7.7l-3.7-10.2l4.6-11.6l13.1,34.8h-9.7l-2.2-6.2H85.8z"/>
	<path class="st0" d="M77.6,81.4l14-34.8h-9.3l-9.6,22.5l-6.8-22.5h-7.2l-7.3,22.5l-5.2-10.2l-4.7,14.4l4.7,8.2h9.2l6.6-20.2
		l6.3,20.2H77.6z"/>
	<path class="st0" d="M26.6,69.5h5.7c1.7,0,3.3-0.2,4.6-0.6l1.5-4.6l4.1-12.8c-0.3-0.5-0.7-1-1.1-1.4c-2.1-2.4-5.2-3.5-9.3-3.5H17.8
		v34.8h8.8V69.5z M34.2,54.6c0.8,0.8,1.2,2,1.2,3.4c0,1.4-0.4,2.5-1.1,3.4c-0.8,0.9-2.3,1.4-4.4,1.4h-3.3v-9.4h3.3
		C31.9,53.4,33.4,53.8,34.2,54.6z"/>
</g>
</svg>
