<?xml version="1.0" encoding="utf-8"?>
<!DOCTYPE svg PUBLIC "-//W3C//DTD SVG 1.1//EN" "http://www.w3.org/Graphics/SVG/1.1/DTD/svg11.dtd">
<svg xmlns="http://www.w3.org/2000/svg" xmlns:xlink="http://www.w3.org/1999/xlink" version="1.1" baseProfile="full" width="128" height="128" viewBox="0 0 128.00 128.00" enable-background="new 0 0 128.00 128.00" xml:space="preserve">
	<rect x="192" y="7.99999" fill="#FF7D00" fill-opacity="1" stroke-width="2" stroke-linejoin="round" width="128" height="128"/>
	<path fill="none" stroke-width="3" stroke-linejoin="round" stroke="#FFFFFF" stroke-opacity="1" d="M 52.2531,88.9558L 30.9935,88.9558C 28.3049,88.9558 26.125,86.7758 26.125,84.0869L 26.125,43.9131C 26.125,41.224 28.3049,39.0442 30.9935,39.0442L 97.0061,39.0442C 99.6949,39.0442 101.875,41.224 101.875,43.9131L 101.875,84.0869C 101.875,86.7758 99.6949,88.9558 97.0061,88.9558L 75.5996,88.9558C 72.8408,75.6745 67.7594,66.647 63.6779,66.647C 59.5964,66.647 54.8216,75.6745 52.2531,88.9558 Z M 47.1213,54.3124C 42.2812,54.3124 38.3573,58.2362 38.3573,63.0764C 38.3573,67.9167 42.2812,71.8405 47.1213,71.8405C 51.9615,71.8405 55.8854,67.9167 55.8854,63.0764C 55.8854,58.2362 51.9615,54.3124 47.1213,54.3124 Z M 80.8787,54.3124C 76.0385,54.3124 72.1146,58.2362 72.1146,63.0764C 72.1146,67.9166 76.0385,71.8404 80.8787,71.8404C 85.7188,71.8404 89.6427,67.9166 89.6427,63.0764C 89.6427,58.2362 85.7188,54.3124 80.8787,54.3124 Z "/>
</svg>
