<?xml version="1.0" encoding="utf-8"?>
<!DOCTYPE svg PUBLIC "-//W3C//DTD SVG 1.1//EN" "http://www.w3.org/Graphics/SVG/1.1/DTD/svg11.dtd">
<svg xmlns="http://www.w3.org/2000/svg" xmlns:xlink="http://www.w3.org/1999/xlink" version="1.1" baseProfile="full" width="150.096" height="150.688" viewBox="0 0 150.10 150.69" enable-background="new 0 0 150.10 150.69" xml:space="preserve">
	<g>
		<g>
			<path fill="#8D89F7" fill-opacity="1" stroke-width="0.2" stroke-linejoin="round" d="M 149.864,90.9855L 59.318,0.135193L 62.6259,0.0698853L 87.4701,0.0700073C 124.759,0.0700073 150.096,25.4072 150.096,62.696L 150.096,88.0617L 149.864,90.9855 Z "/>
			<path fill="#706CF5" fill-opacity="1" stroke-width="0.2" stroke-linejoin="round" d="M 59.1194,-6.10352e-005L 150.048,90.8649C 148.808,126.615 123.817,150.688 87.4701,150.688L 62.6259,150.688C 25.3373,150.688 0,126.166 0,88.8769L 0,61.8808C 0,25.7055 23.8468,1.54572 59.1194,-6.10352e-005 Z "/>
			<g>
				<path fill="#FFFFFF" fill-opacity="1" stroke-width="0.2" stroke-linejoin="round" d="M 96.8008,108.329C 90.5625,112.456 83.0836,114.86 75.0436,114.86C 59.5656,114.86 46.168,105.953 39.6963,92.9854C 36.4276,91.2626 33.4323,89.4643 30.7561,87.6245C 36.1155,107.05 53.9135,121.316 75.0436,121.316C 87.5906,121.316 98.9628,116.286 107.253,108.132C 104.016,108.403 100.512,108.47 96.8008,108.329 Z "/>
				<path fill="#FFFFFF" fill-opacity="1" stroke-width="0.2" stroke-linejoin="round" d="M 36.4143,83.5737C 33.7582,81.9466 31.3473,80.2739 29.2157,78.5803C 21.3091,72.2983 17.246,65.7311 18.7635,60.1558C 20.2769,54.5961 27.0737,50.999 37.0273,49.5826C 45.2924,37.4261 59.2355,29.4413 75.0436,29.4413C 99.4049,29.4413 119.337,48.4047 120.885,72.3752C 128.788,78.6561 132.849,85.2219 131.332,90.7961C 129.811,96.3848 122.951,99.9907 112.912,101.391C 110.212,101.768 107.282,101.985 104.164,102.039C 94.0001,102.213 81.8394,100.646 69.1377,97.1889C 56.4012,93.7222 45.0972,88.8924 36.4143,83.5737 Z M 109.26,95.0886C 112.57,89.3547 114.48,82.7109 114.524,75.6246L 114.524,75.379C 114.524,53.5743 96.848,35.8981 75.0435,35.8981C 60.5465,35.8981 47.8744,43.7116 41.0089,55.357C 37.553,61.2189 35.5682,68.0519 35.5626,75.3481C 43.7872,80.8522 56.2167,86.2797 70.5941,90.1932C 85.4348,94.2327 99.3036,95.8295 109.26,95.0886 Z M 117.15,93.7746C 121.109,92.6122 123.662,90.7744 124.342,88.2775C 125.033,85.7368 123.707,82.8011 120.777,79.7344L 120.716,80.3434C 120.208,85.0724 118.982,89.5865 117.15,93.7746 Z M 33.2953,56.186L 33.6279,55.4794C 28.957,56.6288 25.9752,58.571 25.2322,61.3007C 24.4971,64.0016 26.0422,67.1489 29.3698,70.4252C 29.9095,65.3907 31.2628,60.5995 33.2953,56.186 Z "/>
			</g>
		</g>
		<g>
			<path fill="#FFFFFF" fill-opacity="1" stroke-width="0.2" stroke-linejoin="round" stroke="#FFFFFF" stroke-opacity="1" d="M 108.907,26.2558C 108.317,26.8461 107.7,27.2714 107.057,27.5317C 106.415,27.7917 105.786,27.9061 105.171,27.8743C 104.437,27.8433 103.778,27.6821 103.194,27.3901C 102.61,27.0982 101.973,26.6064 101.281,25.9147L 98.3628,22.9966L 110.322,11.0373L 113.048,13.7634C 113.78,14.4953 114.301,15.0727 114.609,15.4958C 114.918,15.9189 115.135,16.403 115.26,16.9479C 115.394,17.5497 115.359,18.124 115.153,18.6707C 114.947,19.2175 114.589,19.7451 114.081,20.2536C 113.513,20.8218 112.877,21.2036 112.172,21.3986C 111.468,21.5939 110.766,21.591 110.067,21.3901L 110.003,21.4542C 110.4,22.2333 110.507,23.0385 110.323,23.8698C 110.138,24.701 109.667,25.4963 108.907,26.2558 Z M 112.506,19.0678C 112.805,18.7691 113.021,18.4693 113.155,18.1684C 113.29,17.8674 113.327,17.561 113.268,17.2492C 113.193,16.8779 113.036,16.539 112.796,16.2325C 112.557,15.926 112.196,15.532 111.714,15.0504L 110.392,13.7282L 106.788,17.3325L 108.351,18.8961C 108.783,19.3273 109.127,19.6191 109.383,19.7713C 109.639,19.9234 109.958,20.0252 110.341,20.0768C 110.71,20.1249 111.068,20.0639 111.415,19.8937C 111.762,19.7237 112.126,19.4484 112.506,19.0678 Z M 107.447,24.9548C 107.898,24.5042 108.214,24.0784 108.397,23.6773C 108.579,23.2762 108.606,22.808 108.477,22.2729C 108.398,21.9238 108.25,21.6039 108.035,21.3134C 107.819,21.0228 107.479,20.6452 107.015,20.1808L 105.477,18.643L 101.054,23.0663L 102.154,24.1663C 102.746,24.7587 103.245,25.1937 103.651,25.4711C 104.056,25.7486 104.494,25.9125 104.964,25.9628C 105.427,26.0092 105.85,25.9586 106.235,25.811C 106.62,25.6634 107.024,25.3779 107.447,24.9548 Z "/>
			<path fill="#FFFFFF" fill-opacity="1" stroke-width="0.2" stroke-linejoin="round" stroke="#FFFFFF" stroke-opacity="1" d="M 106.507,31.1406L 118.466,19.1812L 124.816,25.5308L 123.341,27.0053L 118.372,22.0361L 115.096,25.3126L 119.789,30.0057L 118.314,31.4802L 113.621,26.787L 109.362,31.0466L 114.331,36.0158L 112.856,37.4902L 106.507,31.1406 Z "/>
			<path fill="#FFFFFF" fill-opacity="1" stroke-width="0.2" stroke-linejoin="round" stroke="#FFFFFF" stroke-opacity="1" d="M 116.583,41.217L 127.068,30.7321L 123.853,27.5175L 125.328,26.043L 133.512,34.2269L 132.037,35.7014L 128.448,32.1125L 117.964,42.5974L 116.583,41.217 Z "/>
			<path fill="#FFFFFF" fill-opacity="1" stroke-width="0.2" stroke-linejoin="round" stroke="#FFFFFF" stroke-opacity="1" d="M 121.276,45.9101L 136.568,37.283L 138.185,38.9006L 129.558,54.1922L 128.105,52.7385L 130.624,48.3771L 127.093,44.8466L 122.73,47.3638L 121.276,45.9101 Z M 131.583,46.715L 135.398,40.0657L 128.756,43.8875L 131.583,46.715 Z "/>
		</g>
	</g>
</svg>
