<svg xmlns="http://www.w3.org/2000/svg" xmlns:xlink="http://www.w3.org/1999/xlink" version="1.1" baseProfile="full" width="48.5405" height="23.0721" viewBox="0 0 48.54 23.07" enable-background="new 0 0 48.54 23.07" xml:space="preserve">
	<g>
		<path fill="#626B71" fill-opacity="0.603922" stroke-width="0.2" stroke-linejoin="round" d="M 11.8591,7.96127C 13.972,6.85284 16.5835,7.66721 17.692,9.78021C 18.8004,11.8932 17.986,14.5047 15.873,15.6131C 13.76,16.7215 11.1486,15.9072 10.0402,13.7942C 8.93176,11.6812 9.74609,9.06967 11.8591,7.96127 Z "/>
		<path fill="#FFFFFF" fill-opacity="1" stroke-width="0.2" stroke-linejoin="round" d="M 33.3494,12.8075C 33.4342,12.763 33.539,12.7957 33.5835,12.8805C 33.6281,12.9653 33.5953,13.0701 33.5105,13.1147C 33.4257,13.1591 33.3208,13.1264 33.2763,13.0417C 33.2319,12.9568 33.2645,12.852 33.3494,12.8075 Z "/>
		<g>
			<path fill="#626B71" fill-opacity="1" stroke-width="0.2" stroke-linejoin="round" d="M 24.9145,11.841C 24.8363,5.85858 38.0341,0.835663 38.0341,0.835663C 38.0341,0.835663 31.0483,5.77744 31.1265,11.7598C 31.2046,17.7422 38.317,22.4998 38.317,22.4998C 38.317,22.4998 24.9926,17.8233 24.9145,11.841 Z "/>
			<g>
				<path fill="#FFC806" fill-opacity="1" stroke-width="0.2" stroke-linejoin="round" d="M 31.6581,8.46954C 31.5983,8.36246 34.139,5.98825 39.6811,5.98029C 39.6811,5.98029 37.9498,6.64737 36.7374,7.5654C 36.7374,7.5654 44.4677,7.33551 48.1858,10.7669C 48.1858,10.7669 44.2992,14.1688 36.4391,14.3359C 36.4391,14.3359 38.4033,16.6947 40.2065,16.6067C 40.2065,16.6067 33.4343,16.1796 31.8017,14.5254C 30.1689,12.8712 30.4557,10.1608 31.6581,8.46954 Z "/>
				<path fill="#F9991C" fill-opacity="1" stroke-width="0.2" stroke-linejoin="round" d="M 31.438,9.12241C 31.3915,9.03909 33.3689,7.19122 37.6823,7.18503C 37.6823,7.18503 36.3349,7.70419 35.3912,8.41873C 35.3912,8.41873 41.4077,8.23984 44.3015,10.9105C 44.3015,10.9105 41.2766,13.5582 35.1591,13.6883C 35.1591,13.6883 36.6879,15.5241 38.0913,15.4556C 38.0913,15.4556 32.8205,15.1232 31.5497,13.8357C 30.279,12.5482 30.5022,10.4388 31.438,9.12241 Z "/>
				<path fill="#F57921" fill-opacity="1" stroke-width="0.2" stroke-linejoin="round" d="M 31.1149,10.081C 31.0879,10.0325 32.2384,8.95743 34.748,8.9538C 34.748,8.9538 33.9641,9.25589 33.415,9.6716C 33.415,9.6716 36.9155,9.56754 38.5992,11.1214C 38.5992,11.1214 36.8392,12.6618 33.28,12.7375C 33.28,12.7375 34.1694,13.8056 34.986,13.7658C 34.986,13.7658 31.9193,13.5724 31.1799,12.8233C 30.4406,12.0742 30.5705,10.8469 31.1149,10.081 Z "/>
			</g>
			<path fill="#626B71" fill-opacity="1" stroke-width="0.2" stroke-linejoin="round" d="M 27.1367,23.0721L 27.1066,20.7653L 40.8473,20.5858L 40.8774,22.8926L 27.1367,23.0721 Z "/>
			<path fill="#626B71" fill-opacity="1" stroke-width="0.2" stroke-linejoin="round" d="M 26.8677,2.4863L 26.8376,0.179504L 40.5782,-3.05176e-005L 40.6083,2.30682L 26.8677,2.4863 Z "/>
			<path fill="#FFC806" fill-opacity="1" stroke-width="0.2" stroke-linejoin="round" d="M 40.5768,1.71323C 40.5498,1.73492 41.7604,2.18155 44.3563,2.13495C 44.3563,2.13495 43.5396,2.01828 42.9637,1.8476C 42.9637,1.8476 46.5864,1.82574 48.2981,1.116C 48.2981,1.116 46.4481,0.47818 42.7651,0.513489C 42.7651,0.513489 43.6646,0.0307312 44.51,0.0324402C 44.51,0.0324402 41.3417,0.175629 40.5914,0.516418C 39.8411,0.857208 39.999,1.3898 40.5768,1.71323 Z "/>
			<path fill="#FFC806" fill-opacity="1" stroke-width="0.2" stroke-linejoin="round" d="M 40.8193,22.4109C 40.7924,22.4326 42.0029,22.8792 44.5988,22.8326C 44.5988,22.8326 43.7821,22.716 43.2062,22.5453C 43.2062,22.5453 46.829,22.5234 48.5406,21.8137C 48.5406,21.8137 46.6906,21.1758 43.0077,21.2112C 43.0077,21.2112 43.9071,20.7284 44.7526,20.7301C 44.7526,20.7301 41.5842,20.8733 40.8339,21.2141C 40.0836,21.5549 40.2415,22.0875 40.8193,22.4109 Z "/>
			<g>
				<path fill="#A7A7A7" fill-opacity="1" stroke-width="0.2" stroke-linejoin="round" d="M 16.3073,6.88754C 7.2663,7.00568 0,11.9156 0,11.9156C 0,11.9156 7.39209,16.6341 16.4331,16.5161C 25.4741,16.3979 32.7405,11.4879 32.7405,11.4879C 32.7405,11.4879 25.3484,6.76944 16.3073,6.88754 Z M 14.0167,15.8328C 11.7526,15.8624 9.89307,14.0509 9.86353,11.7868C 9.83392,9.52264 11.6454,7.66324 13.9095,7.63364C 16.1737,7.6041 18.0331,9.41556 18.0627,11.6797C 18.0923,13.9438 16.2808,15.8033 14.0167,15.8328 Z "/>
				<defs>
					<path id="SVG_CLIPPER1_" d="M 16.3073,6.88754C 7.2663,7.00568 0,11.9156 0,11.9156C 0,11.9156 7.39209,16.6341 16.4331,16.5161C 25.4741,16.3979 32.7405,11.4879 32.7405,11.4879C 32.7405,11.4879 25.3484,6.76944 16.3073,6.88754 Z M 14.0167,15.8328C 11.7526,15.8624 9.89307,14.0509 9.86353,11.7868C 9.83392,9.52264 11.6454,7.66324 13.9095,7.63364C 16.1737,7.6041 18.0331,9.41556 18.0627,11.6797C 18.0923,13.9438 16.2808,15.8033 14.0167,15.8328 Z "/>
				</defs>
				<clipPath id="SVG_CLIPPER2_">
					<use xlink:href="#SVG_CLIPPER1_" overflow="visible"/>
				</clipPath>
				<g clip-path="url(#SVG_CLIPPER2_)">
					<path fill="#FFFFFF" fill-opacity="0.298039" stroke-width="0.2" stroke-linejoin="round" d="M -0.335083,11.5971C -0.261292,11.443 15.4629,15.5424 30.9443,10.8399C 46.4259,6.13727 31.9367,15.0735 26.9298,17.6466C 21.9229,20.2197 2.61713,16.512 -0.335083,11.5971 Z "/>
				</g>
			</g>
		</g>
		<path fill="#FFFFFF" fill-opacity="0.152941" stroke-width="0.2" stroke-linejoin="round" d="M 14.3467,8.89474C 15.7378,9.32855 13.5895,9.89853 13.122,11.3976C 12.6545,12.8966 14.045,14.757 12.6538,14.3232C 11.2627,13.8893 10.5139,12.3224 10.9814,10.8234C 11.4489,9.32443 12.9555,8.46091 14.3467,8.89474 Z "/>
	</g>
</svg>
