<?xml version="1.0" encoding="utf-8"?>
<!DOCTYPE svg PUBLIC "-//W3C//DTD SVG 1.1//EN" "http://www.w3.org/Graphics/SVG/1.1/DTD/svg11.dtd">
<svg xmlns="http://www.w3.org/2000/svg" xmlns:xlink="http://www.w3.org/1999/xlink" version="1.1" baseProfile="full" width="150.096" height="150.618" viewBox="0 0 150.10 150.62" enable-background="new 0 0 150.10 150.62" xml:space="preserve">
	<g>
		<path fill="#706CF5" fill-opacity="1" stroke-width="0.2" stroke-linejoin="round" d="M 87.47,0.00012207C 124.759,0.00012207 150.096,25.3374 150.096,62.626L 150.096,87.9918L 150.048,90.795C 148.808,126.545 123.817,150.618 87.47,150.618L 62.6259,150.618C 25.3372,150.618 0,126.096 0,88.807L 0,61.8108C 0,25.6356 23.8467,1.47583 59.3179,0.0653076L 62.6259,0L 87.47,0.00012207 Z "/>
		<g>
			<path fill="#FFFFFF" fill-opacity="1" stroke-width="0.2" stroke-linejoin="round" d="M 96.8008,108.259C 90.5626,112.386 83.0838,114.79 75.0436,114.79C 59.5657,114.79 46.168,105.883 39.6964,92.9155C 36.4278,91.1929 33.4324,89.3945 30.7562,87.5546C 36.1157,106.98 53.9136,121.247 75.0437,121.247C 87.5906,121.247 98.9628,116.216 107.253,108.063C 104.016,108.333 100.512,108.4 96.8008,108.259 Z "/>
			<path fill="#FFFFFF" fill-opacity="1" stroke-width="0.2" stroke-linejoin="round" d="M 36.4145,83.5038C 33.7582,81.8767 31.3474,80.204 29.2158,78.5105C 21.3093,72.2285 17.2461,65.6613 18.7637,60.0859C 20.277,54.5264 27.0738,50.9291 37.0275,49.5127C 45.2925,37.3562 59.2356,29.3715 75.0436,29.3715C 99.4051,29.3715 119.337,48.3348 120.885,72.3054C 128.788,78.5862 132.849,85.152 131.332,90.7263C 129.811,96.3149 122.951,99.9208 112.912,101.322C 110.212,101.698 107.282,101.916 104.164,101.969C 94.0002,102.143 81.8394,100.576 69.1379,97.1191C 56.4014,93.6523 45.0972,88.8225 36.4145,83.5038 Z M 109.26,95.0188C 112.57,89.2849 114.48,82.6411 114.524,75.5547L 114.524,75.3091C 114.524,53.5044 96.8482,35.8284 75.0435,35.8284C 60.5466,35.8284 47.8746,43.6418 41.009,55.2871C 37.553,61.1492 35.5684,67.9822 35.5628,75.2782C 43.7874,80.7823 56.2167,86.2098 70.5943,90.1233C 85.4349,94.1628 99.3038,95.7598 109.26,95.0188 Z M 117.15,93.7048C 121.109,92.5425 123.662,90.7046 124.342,88.2078C 125.033,85.667 123.707,82.7312 120.777,79.6646L 120.716,80.2736C 120.208,85.0026 118.982,89.5166 117.15,93.7048 Z M 33.2954,56.1161L 33.628,55.4097C 28.9571,56.5591 25.9753,58.5012 25.2324,61.2308C 24.4971,63.9318 26.0424,67.0791 29.3699,70.3553C 29.9097,65.3208 31.2629,60.5298 33.2954,56.1161 Z "/>
		</g>
	</g>
</svg>
