<?xml version="1.0" encoding="utf-8"?>
<!DOCTYPE svg PUBLIC "-//W3C//DTD SVG 1.1//EN" "http://www.w3.org/Graphics/SVG/1.1/DTD/svg11.dtd">
<svg xmlns="http://www.w3.org/2000/svg" xmlns:xlink="http://www.w3.org/1999/xlink" version="1.1" baseProfile="full" width="149.43" height="149.949" viewBox="0 0 149.43 149.95" enable-background="new 0 0 149.43 149.95" xml:space="preserve">
	<g>
		<path fill="#706CF5" fill-opacity="1" stroke-width="0.2" stroke-linejoin="round" d="M 87.0817,6.10352e-005C 124.205,6.10352e-005 149.43,25.2248 149.43,62.348L 149.43,87.601L 149.381,90.3919C 148.147,125.983 123.267,149.949 87.0817,149.949L 62.3479,149.949C 25.2247,149.949 0,125.536 0,88.4127L 0,61.5363C 0,25.5217 23.7408,1.46918 59.0546,0.0648804L 62.3479,-6.10352e-005L 87.0817,6.10352e-005 Z "/>
		<g>
			<path fill="#FFFFFF" fill-opacity="0.992157" stroke-width="0.2" stroke-linejoin="round" d="M 76.8091,120.708C 78.5132,120.708 80.1954,120.615 81.8512,120.434L 78.7145,114.235L 76.8091,114.28C 61.3999,114.28 48.0616,105.413 41.6188,92.5031C 38.3646,90.7879 35.3826,88.9975 32.7183,87.1658C 38.0538,106.505 55.7728,120.708 76.8091,120.708 Z "/>
			<path fill="#FFFFFF" fill-opacity="0.992157" stroke-width="0.2" stroke-linejoin="round" d="M 116.016,77.7801L 122.495,77.7802C 122.495,77.7803 122.467,75.951 122.447,71.9843C 120.906,48.1202 101.062,29.2411 76.8091,29.2411C 61.0712,29.2411 47.1901,37.1904 38.9617,49.2929C 29.0522,50.7028 22.2855,54.2841 20.7789,59.8192C 19.2682,65.3698 23.3132,71.9078 31.1847,78.1618C 33.3068,79.8478 35.7069,81.5132 38.3513,83.133C 46.9957,88.4282 59.6974,93.7731 72.3773,97.2245L 69.7189,88.9754C 56.5353,85.1514 45.1798,80.0811 37.5035,74.9438C 37.5092,67.6802 39.485,60.8776 42.9255,55.0416C 49.7606,43.4479 62.3763,35.6691 76.809,35.6691C 98.5168,35.6691 116.115,53.2668 116.115,74.9748L 116.114,75.2192C 116.109,76.0798 116.076,76.9335 116.016,77.7801 Z M 35.5773,55.1636L 35.2462,55.8669C 33.2227,60.2612 31.8755,65.0309 31.3381,70.0432C 28.0253,66.7812 26.4869,63.6479 27.2189,60.959C 27.9585,58.2414 30.9271,56.308 35.5773,55.1636 Z "/>
			<path fill="#FFFFFF" fill-opacity="1" stroke-width="0.2" stroke-linejoin="round" d="M 73.8208,83.7057L 80.4567,83.7059L 91.5795,114.791L 84.9436,114.791L 73.8208,83.7057 Z "/>
			<path fill="#FFFFFF" fill-opacity="1" stroke-width="0.2" stroke-linejoin="round" d="M 96.7911,83.0867L 103.657,83.0866L 94.1569,110.483L 90.3816,100.456L 96.7911,83.0867 Z "/>
			<path fill="#FFFFFF" fill-opacity="1" stroke-width="0.2" stroke-linejoin="round" d="M 111.439,99.6428L 118.983,99.6428L 128.431,114.732L 120.887,114.732L 111.439,99.6428 Z "/>
			<path fill="#FFFFFF" fill-opacity="1" stroke-width="0.2" stroke-linejoin="round" d="M 121.39,98.4655L 124.459,103.167C 124.459,103.168 128.769,100.824 128.769,96.5063C 128.769,89.7182 126.631,83.2491 116.492,83.2492C 106.352,83.2492 104.998,86.5756 104.998,91.2819C 104.998,95.988 104.998,114.728 104.998,114.728L 111.077,114.728L 111.077,90.4966C 111.077,90.4968 110.395,88.8001 117.406,88.8002C 124.417,88.8005 123.349,97.2902 121.39,98.4655 Z "/>
		</g>
	</g>
</svg>
