<?xml version="1.0" encoding="utf-8"?>
<!-- Generator: Adobe Illustrator 22.0.1, SVG Export Plug-In . SVG Version: 6.00 Build 0)  -->
<svg version="1.1" id="Layer_1" xmlns="http://www.w3.org/2000/svg" xmlns:xlink="http://www.w3.org/1999/xlink" x="0px" y="0px"
	 viewBox="0 0 181 181" style="enable-background:new 0 0 181 181;" xml:space="preserve">
<style type="text/css">
	.st0{fill:#FFFFFF;}
</style>
<g>
	<path class="st0" d="M145.2,146.9H35.8c-1,0-1.8-0.8-1.8-1.8V72.3c0-0.6,0.3-1.1,0.8-1.5l54.7-36.5c0.6-0.4,1.4-0.4,1.9,0
		l54.8,36.5c0.5,0.3,0.8,0.9,0.8,1.5v72.9C146.9,146.2,146.2,146.9,145.2,146.9z M37.6,143.4h105.9V73.3L90.6,38L37.7,73.3v70.2
		H37.6z"/>
	<g>
		<path class="st0" d="M117.9,100.4H94.6v23.4h-8.2v-23.3H63.1v-8.2h23.3V68.9h8.2v23.3h23.3V100.4z"/>
	</g>
</g>
</svg>
