<?xml version="1.0" encoding="utf-8"?>
<!-- Generator: Adobe Illustrator 22.0.1, SVG Export Plug-In . SVG Version: 6.00 Build 0)  -->
<svg version="1.1" id="Layer_1" xmlns="http://www.w3.org/2000/svg" xmlns:xlink="http://www.w3.org/1999/xlink" x="0px" y="0px"
	 viewBox="0 0 181 181" style="enable-background:new 0 0 181 181;" xml:space="preserve">
<style type="text/css">
	.st0{fill:#FFFFFF;}
</style>
<g>
	<g>
		<path class="st0" d="M79.7,120c-10.9,0-19.7-8.9-19.7-19.7s8.9-19.8,19.7-19.8c10.9,0,19.8,8.9,19.8,19.8S90.6,120,79.7,120z
			 M79.7,83.9c-9,0-16.2,7.3-16.2,16.3s7.3,16.2,16.2,16.2c9,0,16.3-7.3,16.3-16.2C95.8,91.3,88.6,83.9,79.7,83.9z"/>
		<path class="st0" d="M138.9,134H20.2c-1,0-1.8-0.8-1.8-1.8v-64c0-1,0.8-1.8,1.8-1.8h118.7c1,0,1.8,0.8,1.8,1.8v64
			C140.8,133.1,139.9,134,138.9,134z M22,130.5h115.2V69.9H22V130.5z"/>
		<g>
			<path class="st0" d="M111.3,109.7c-0.1-0.8-0.2-1.6-0.3-2.5c0-0.9,0-1.8,0.1-2.7c0.1-1,0.4-2,0.9-2.8c0.5-0.9,1-1.6,1.7-2.2
				s1.5-1.1,2.5-1.4c0.9-0.3,1.9-0.5,3-0.5c1.2,0,2.3,0.2,3.3,0.5c1,0.4,1.8,0.9,2.5,1.5s1.3,1.4,1.6,2.3c0.4,0.9,0.6,1.9,0.6,2.9
				h-2.7c0-0.5-0.1-1.1-0.4-1.6c-0.2-0.6-0.5-1.1-0.9-1.6s-0.9-0.9-1.6-1.2c-0.6-0.3-1.4-0.5-2.2-0.5s-1.5,0.1-2.1,0.3
				c-0.6,0.2-1.1,0.5-1.6,0.8c-0.4,0.4-0.8,0.8-1.1,1.3s-0.5,1-0.6,1.6c-0.3,1-0.4,2-0.4,3s0.1,1.9,0.2,2.8h9.7v2.7h-9.4
				c0.1,0.8,0.2,1.6,0.2,2.5s-0.1,1.7-0.2,2.6c-0.1,0.8-0.2,1.6-0.4,2.3s-0.4,1.3-0.5,1.7h8.8c0.7,0,1.3,0,1.9-0.1
				c0.6-0.1,1.1-0.3,1.5-0.6s0.8-0.7,1-1.3s0.4-1.3,0.3-2.2h2.6c0.1,1.2-0.1,2.3-0.5,3.1c-0.4,0.9-0.9,1.6-1.6,2.1
				c-0.7,0.6-1.5,1-2.5,1.2c-1,0.3-2.1,0.4-3.2,0.4h-14.1v-2.7h2.9c0.3-0.8,0.6-1.5,0.8-2.3s0.3-1.6,0.4-2.4
				c0.1-0.8,0.1-1.5,0.1-2.3c0-0.7-0.1-1.5-0.2-2.1h-2.9v-2.7h2.8V109.7z"/>
		</g>
		<path class="st0" d="M149.6,124.7H139v-3.5h8.9V60.7H32.8v6.9h-3.5v-8.7c0-1,0.8-1.8,1.8-1.8h118.7c1,0,1.8,0.8,1.8,1.8v64
			C151.4,123.8,150.6,124.7,149.6,124.7z"/>
		<path class="st0" d="M160.6,114.7H150v-3.5h8.9V50.7H43.8v6.9h-3.5v-8.7c0-1,0.8-1.8,1.8-1.8h118.7c1,0,1.8,0.8,1.8,1.8v64
			C162.4,113.8,161.6,114.7,160.6,114.7z"/>
	</g>
</g>
</svg>
