<?xml version="1.0" encoding="utf-8"?>
<!-- Generator: Adobe Illustrator 22.0.1, SVG Export Plug-In . SVG Version: 6.00 Build 0)  -->
<svg version="1.1" id="Layer_1" xmlns="http://www.w3.org/2000/svg" xmlns:xlink="http://www.w3.org/1999/xlink" x="0px" y="0px"
	 viewBox="0 0 181 181" style="enable-background:new 0 0 181 181;" xml:space="preserve">
<style type="text/css">
	.st0{fill:#FFFFFF;}
</style>
<g>
	<g>
		<path class="st0" d="M111.6,66.1c-5.9-5.1-13.4-7.9-21.1-7.9S75.3,61,69.5,66l-2.3-2.7c6.5-5.6,14.7-8.6,23.3-8.6
			s16.9,3.1,23.4,8.7L111.6,66.1z"/>
		<path class="st0" d="M90.5,100.3c-5.4,0-9.8-4.4-9.8-9.8s4.4-9.8,9.8-9.8s9.8,4.4,9.8,9.8S95.9,100.3,90.5,100.3z M90.5,84.3
			c-3.4,0-6.3,2.8-6.3,6.3c0,3.4,2.8,6.3,6.3,6.3s6.3-2.8,6.3-6.3S93.9,84.3,90.5,84.3z"/>
		<path class="st0" d="M78.4,78.4l-2.5-2.5c3.9-3.9,9-6,14.5-6c4.8,0,9.5,1.7,13.2,4.8l-2.2,2.7c-3.1-2.5-6.9-3.9-10.9-3.9
			C85.9,73.4,81.7,75.2,78.4,78.4z"/>
		<path class="st0" d="M90.5,139.8c-27.2,0-49.3-22.1-49.3-49.3s22.1-49.3,49.3-49.3s49.3,22.1,49.3,49.3S117.7,139.8,90.5,139.8z
			 M90.5,44.7c-25.3,0-45.8,20.5-45.8,45.8s20.5,45.8,45.8,45.8s45.8-20.5,45.8-45.8S115.8,44.7,90.5,44.7z"/>
	</g>
</g>
</svg>
