<?xml version="1.0" encoding="utf-8"?>
<!-- Generator: Adobe Illustrator 22.0.1, SVG Export Plug-In . SVG Version: 6.00 Build 0)  -->
<svg version="1.1" id="Layer_1" xmlns="http://www.w3.org/2000/svg" xmlns:xlink="http://www.w3.org/1999/xlink" x="0px" y="0px"
	 viewBox="0 0 181 181" style="enable-background:new 0 0 181 181;" xml:space="preserve">
<style type="text/css">
	.st0{fill:#FFFFFF;}
</style>
<g>
	<path class="st0" d="M177.2,77.6c0-13.9-11.7-25.7-25.6-25.7c-4.1-0.2-8.3-0.4-12.6-0.4c-4.4,0-9,0.2-13.4,0.4
		c-13.9,0-25.7,11.8-25.7,25.6c-0.2,4-0.4,8.1-0.4,12.4s0.2,9,0.4,13.5c0,13.9,11.8,25.7,25.7,25.7h0.1c4.5,0.2,9.1,0.4,13.4,0.4
		c4.3,0,8.4-0.2,12.4-0.4c13.9,0,25.7-11.8,25.7-25.7c0.2-4.3,0.4-8.8,0.4-13.1C177.6,86,177.4,81.7,177.2,77.6z M173.7,103.2
		c0,11.8-10.4,22.2-22.3,22.2h-0.1c-3.9,0.2-8,0.4-12.2,0.4c-4.2,0-8.8-0.2-13.2-0.4h-0.2c-11.8,0-22.2-10.4-22.2-22.3
		c-0.2-4.5-0.4-9.1-0.4-13.4s0.2-8.3,0.4-12.3c0-11.8,10.4-22.2,22.2-22.2h0.1c4.4-0.2,8.9-0.4,13.2-0.4c4.2,0,8.3,0.3,12.5,0.4
		c11.8,0,22.2,10.4,22.2,22.3c0.2,4.1,0.4,8.3,0.4,12.6C174.1,94.4,173.9,98.8,173.7,103.2z"/>
	<path class="st0" d="M138.9,64.2C138.8,64.2,138.8,64.2,138.9,64.2l-0.3,0c-2.3,0-4.6,0.3-6.9,0.9c-0.4-0.2-0.9-0.3-1.3-0.1
		c-11.1,3.5-18.5,13.7-18.5,25.3v0.6c0,0.2,0,0.5,0.1,0.7c0.4,9.6,6,18.2,14.6,22.5c0.1,0.1,0.3,0.3,0.5,0.3c0.8,0.4,1.6,0.7,2.4,1
		c0.2,0.1,0.4,0.1,0.6,0.1c0,0,0,0,0,0c2.7,0.9,5.5,1.4,8.4,1.4c8.6,0,16.7-4.1,21.6-10.8c3.2-4.5,4.9-9.8,4.9-15.4
		C165,76.3,153.3,64.4,138.9,64.2z M127.6,93c0.1-0.1,0.2-0.1,0.3-0.2l0.5-0.3h0.6l0.6,0.4l0.7,0.7l1.9,2.3c0.1,0.1,0.1,0.1,0.2,0.2
		l0.5,0.5l0.9,1c0.2,0.3,0.6,0.5,1,0.6l1.9,0.3l0.7,0.2l0.8,0.4c0.1,0.1,0.2,0.2,0.4,0.2l0.3,0.1v0.1l-0.2,0.1
		c-0.2,0.2-0.4,0.3-0.5,0.5l-0.7,0.9c-0.1,0.1-0.1,0.2-0.2,0.4l-0.8,2.1c-0.1,0.1-0.1,0.1-0.1,0.2l-0.1,0.3l-0.1,0.1
		c-0.2,0.1-0.3,0.2-0.4,0.4l-1.5,2.3l-1.1,1l-0.1,0.1l-0.9,1l-0.8,0.5c-0.2,0.1-0.3,0.2-0.4,0.3l-1.3,1.3v-0.1l0.3-1.4
		c0.1-0.2,0.1-0.3,0.1-0.5v-1.4l0.1-1.6c0-0.1,0-0.1,0-0.2l-0.1-1.4c0-0.4-0.1-0.7-0.3-1l-0.5-0.6l-0.2-0.6
		c-0.1-0.3-0.3-0.5-0.5-0.7l-0.9-0.7l-0.6-0.6l-0.5-0.6V99c0-0.1,0-0.2,0-0.3l-0.3-1.2v-0.7l0.2-0.4c0.1-0.1,0.2-0.3,0.2-0.4
		l0.3-0.9c0.1-0.2,0.1-0.4,0.1-0.6l-0.1-1.2L127.6,93z M130.7,69.1L130.7,69.1c0,0.1-0.1,0.1-0.2,0.2l-0.9,0.6
		c-0.1,0.1-0.3,0.2-0.4,0.3c-0.3,0.3-0.5,0.7-0.5,1.2V75c0,0.1,0.1,0.3,0.1,0.4l0.1,0.3l-0.2,0.4c-0.2,0-0.5-0.1-0.7,0l-0.6,0.1
		c-0.3,0.1-0.6,0.2-0.8,0.4c-0.1,0.1-0.1,0.1-0.2,0.2l-1,1l-1.4,1.4l-0.1,0.1c-0.3,0.4-0.5,0.9-0.5,1.4l0.1,1.3l-0.4,0.9
		c0,0-0.1,0.1-0.1,0.2l-0.1,0.2l-0.3-0.2c-0.4-0.2-0.9-0.3-1.4-0.1l-0.7,0.2c-0.2,0.1-0.4,0.2-0.6,0.4l-1,0.9
		c-0.1,0.1-0.2,0.2-0.3,0.3l0,0c0,0-0.1,0.1-0.1,0.1l-0.4,0.6c-0.3,0.3-0.4,0.8-0.3,1.2l0.3,1.6c0.1,0.2,0.2,0.5,0.3,0.7l-0.3,0
		l-2-0.1c0,0-0.1,0-0.2,0l-0.4,0C116.3,79.9,122.1,72.1,130.7,69.1z M115.6,92.5l0.4-0.1l1.9,0.1c0,0,0.1,0,0.1,0c0,0,0.1,0,0.1,0
		c0,0,0.1,0,0.1,0l1.7-0.1l1.5,1.1c0.1,0.1,0.2,0.2,0.3,0.2l1.1,0.5l0.3,0.3l0.1,0.1l-0.1,0.3l-0.4,0.6c-0.1,0.3-0.2,0.7-0.2,1
		l0.1,1.4c0,0.1,0,0.2,0,0.3l0.3,1.2v1c0,0.4,0.1,0.8,0.4,1.1l0.9,1.1l0.1,0.1l0.8,0.8c0.1,0,0.1,0.1,0.2,0.1l0.6,0.5l0.2,0.4
		c0,0.1,0.1,0.3,0.2,0.4l0.3,0.4v0.7l-0.1,1.6v0.1v1.4l-0.2,0.8C120.2,106.1,116.3,99.7,115.6,92.5z M138.5,113.4
		c-1.9,0-3.8-0.2-5.6-0.7l0.2-0.1l0.9-0.5c0.1-0.1,0.3-0.3,0.4-0.4l1.1-1.2l1.3-1.1c0.1-0.1,0.2-0.3,0.3-0.4l1.4-2.2l0.3-0.3
		c0.3-0.3,0.5-0.6,0.6-1l0.2-0.8l0.7-1.8l0.3-0.4l0.7-0.5c0.5-0.3,0.8-0.9,0.8-1.5v-0.3v-1.8v-0.3c0-0.6-0.3-1.1-0.7-1.4l-0.9-0.7
		c-0.2-0.1-0.4-0.2-0.7-0.3l-0.6-0.1l-0.8-0.4c-0.1,0-0.2-0.1-0.3-0.1l-0.9-0.3c-0.1,0-0.1,0-0.2,0l-1.4-0.2L135,94l-0.1-0.1
		l-0.5-0.5l-1.9-2.3l-0.1-0.1l-0.9-0.9c-0.1-0.1-0.3-0.2-0.4-0.3l-1.2-0.7c-0.2-0.1-0.4-0.2-0.7-0.2l-1.6-0.1
		c-0.4,0-0.8,0.1-1.1,0.3l-0.8,0.5h-0.1h-0.2l-0.7-0.6l-1.1-1.1l-0.5-0.6c0-0.1-0.1-0.1-0.1-0.2c0.3,0,0.6,0,0.8-0.1l0.8-0.3
		c0.5-0.2,0.9-0.7,1-1.2l0.4-1.4l0.6-1.2c0.2-0.2,0.2-0.5,0.2-0.8l0-0.1c0-0.1,0-0.2,0-0.2l-0.1-0.6l0.9-0.8l0.3-0.3
		c0.1,0,0.3,0,0.4,0h0.7c0.4,0,0.8-0.1,1.1-0.4l0.8-0.7c0.2-0.1,0.4-0.4,0.5-0.6l0.8-2c0.1-0.3,0.2-0.5,0.2-0.8c0-0.2,0-0.4-0.1-0.6
		l-0.2-0.7v-2.1l0.7-0.2c0.3-0.1,0.5-0.2,0.7-0.4l0.8-0.8c0.4-0.4,0.5-0.9,0.5-1.4l0-0.1c0-0.1,0-0.1,0-0.2l-0.1-0.6
		c0-0.2-0.1-0.4-0.2-0.6c0.8-0.1,1.6-0.2,2.3-0.3l-0.1,1l0,0.2c0,0,0,0,0,0l0,0.1c-0.1,0.7,0.4,1.4,1.1,1.7l1.2,0.5l1.3,0.7
		c0.2,0.1,0.4,0.2,0.6,0.2l1.3,0.1l1.7,0.5l0.1,1c0,0.2,0,0.3,0.1,0.5l0.3,0.9c0.2,0.4,0.4,0.7,0.8,0.9l1.4,0.8l0.8,0.5l-0.5,0.7
		c-0.1,0.1-0.2,0.3-0.2,0.5l-0.1,0.4c-0.1,0.1-0.1,0.3-0.1,0.5c0,0.4,0.1,0.8,0.4,1.1l0.5,0.7l-0.6,0.1c-0.1,0.1-0.3,0.1-0.4,0.2
		l-1.1,0.6c-0.4,0.1-0.6,0.4-0.8,0.7l-0.5,1l-1.1,1.8c-0.2,0.3-0.3,0.6-0.3,0.9v0.1v1.3l-0.1,1.1c0,0.1,0,0.2,0,0.3
		c0,0.3,0.2,0.6,0.3,0.9l0.7,0.9l0.1,0.1l0.5,0.6l0.6,0.9c0.1,0.2,0.2,0.3,0.3,0.4l0.9,0.8c0.2,0.1,0.3,0.2,0.5,0.3l0.6,0.3
		c0.3,0.2,0.6,0.2,0.9,0.2h0.5c0.4,0,0.8-0.1,1.1-0.4l0.4-0.4l0.5-0.4c0,0.1,0.1,0.1,0.1,0.1l0.3,0.2v1v0.1c0,0,0,0.1,0,0.1
		c0,0,0,0,0,0.1l0.1,0.8c0,0.3,0.1,0.5,0.2,0.7l0.5,0.9l0.3,1.9l0.1,1.9v0.7v0.1c0,0.5,0.1,0.9,0.4,1.2l0.7,0.7
		c0.1,0.1,0.3,0.2,0.4,0.3l0.9,0.5c0.2,0.1,0.4,0.2,0.6,0.2l0.7,0.1h0.1l0.2,0.2C151.7,110.4,145.3,113.4,138.5,113.4z M158.2,102.2
		c-0.2-0.1-0.3-0.2-0.5-0.3l-0.7-0.3c-0.1,0-0.3-0.1-0.4-0.1l-0.5-0.1l-0.3-0.3v-0.3v-0.1l-0.1-1.2v-0.8c0,0,0-0.1,0-0.2l-0.2-1.1
		l-0.1-1.1c-0.1-0.2-0.2-0.5-0.3-0.7l-0.5-0.8V94v-0.3c0.1-0.2,0-0.3,0-0.5c0.1-0.3,0-0.5-0.1-0.7l-0.3-0.6
		c-0.1-0.1-0.1-0.2-0.2-0.3l-0.2-0.4c-0.1-0.1-0.2-0.3-0.4-0.4l-0.3-0.2l-0.2-0.2l-0.1-0.1l-0.4-0.4c-0.3-0.4-0.8-0.6-1.3-0.6h-0.6
		c-0.4,0-0.8,0.1-1.1,0.4L149,90c-0.1,0.1-0.2,0.2-0.3,0.3l-0.1,0.2l-0.3,0.2l-0.4-0.4l-0.5-0.8c-0.1-0.1-0.1-0.2-0.2-0.3l-0.6-0.6
		l-0.2-0.3v-1.1l0.9-1.5c0.1,0,0.1-0.1,0.1-0.1l0.3-0.5l0.4-0.2l0.9-0.2h0.9c0.1,0,0.3,0,0.4,0l1.1-0.2c0.2-0.1,0.3-0.1,0.5-0.2
		l0.8-0.5c0-0.1,0.1-0.1,0.1-0.1l0.2-0.2l0.9-0.2h0.5l0.3,0.2c0.3,0.1,0.7,0.2,1,0.2h0.5c0.8,0,1.5-0.7,1.6-1.5l0.1-1.1
		c0-0.1,0-0.1,0-0.2v-0.2l0,0c0-0.1,0-0.1,0-0.2v-0.6c0-0.6-0.4-1.2-0.9-1.5l-1.3-0.9c-0.2-0.2-0.3-0.2-0.5-0.3l-1-0.3h-0.1
		l-0.7-0.2c-0.4-0.1-0.9,0-1.3,0.2l-0.7,0.4c0,0,0-0.1,0-0.2l-0.1-1.7c0-0.9-0.8-1.6-1.7-1.6l-1.6-0.9l-0.1-1.6
		c0-0.6-0.3-1.2-0.8-1.5l-1-0.7c-0.2-0.1-0.3-0.2-0.5-0.2l-2.2-0.6c-0.1,0-0.2,0-0.3,0l-1.2-0.1l-1.1-0.6c-0.1-0.1-0.1-0.1-0.2-0.1
		h-0.1v-0.1c11.7,1,21,10.9,21,22.9C161.5,94.5,160.4,98.6,158.2,102.2z"/>
</g>
<g>
	<path class="st0" d="M11,108.6c-3.4,0-6.2-2.8-6.2-6.2V83.5c0-3.4,2.8-6.2,6.2-6.2s6.2,2.8,6.2,6.2v18.9
		C17.2,105.8,14.5,108.6,11,108.6z M11,80.8c-1.5,0-2.7,1.2-2.7,2.7v18.9c0,1.5,1.2,2.7,2.7,2.7s2.7-1.2,2.7-2.7V83.5
		C13.7,82,12.5,80.8,11,80.8z"/>
	<path class="st0" d="M70.1,108.6c-3.4,0-6.2-2.8-6.2-6.2V83.5c0-3.4,2.8-6.2,6.2-6.2s6.2,2.8,6.2,6.2v18.9
		C76.4,105.8,73.6,108.6,70.1,108.6z M70.1,80.8c-1.5,0-2.7,1.2-2.7,2.7v18.9c0,1.5,1.2,2.7,2.7,2.7s2.7-1.2,2.7-2.7V83.5
		C72.9,82,71.6,80.8,70.1,80.8z"/>
	<path class="st0" d="M48.1,130.5c-3.4,0-6.2-2.8-6.2-6.2v-8.7h-2.6v8.7c0,3.4-2.8,6.2-6.2,6.2s-6.2-2.8-6.2-6.2v-8.7h-1.7
		c-3.6,0-6.5-2.9-6.6-6.4v-0.1V80c0-1,0.8-1.8,1.8-1.8h40.8c1,0,1.8,0.8,1.8,1.8v29.1v0.1c-0.1,3.6-3,6.4-6.6,6.4h-2v8.7
		C54.3,127.7,51.5,130.5,48.1,130.5z M37.5,112.1h6.1c1,0,1.8,0.8,1.8,1.8v10.4c0,1.5,1.2,2.7,2.7,2.7s2.7-1.2,2.7-2.7v-10.4
		c0-1,0.8-1.8,1.8-1.8h3.7c1.7,0,3-1.3,3.1-3V81.7H22v27.4c0,1.7,1.4,3.1,3.1,3.1h3.4c1,0,1.8,0.8,1.8,1.8v10.4
		c0,1.5,1.2,2.7,2.7,2.7s2.7-1.2,2.7-2.7V114C35.7,112.8,36.5,112.1,37.5,112.1z"/>
	<path class="st0" d="M20.2,76.8c-0.4,0-0.8-0.2-1.1-0.5s-0.4-0.7-0.4-1.1c0.3-7.3,3.9-13.4,9.9-17l-2.4-4.5
		c-0.3-0.5-0.3-1.1-0.2-1.6s0.5-1,1-1.3c1-0.6,2.3-0.2,2.9,0.9l2.5,4.7c2.6-0.9,5.3-1.4,8.2-1.4s5.7,0.5,8.3,1.4l2.5-4.7
		c0.6-1,1.9-1.4,2.9-0.9c0.5,0.3,0.9,0.7,1,1.3c0.2,0.5,0.1,1.1-0.2,1.6l-2.4,4.5c5.9,3.6,9.5,9.7,9.8,16.9c0,0.4-0.1,0.8-0.4,1.1
		s-0.7,0.5-1.1,0.5L20.2,76.8L20.2,76.8z M31.8,59.8c-0.1,0.2-0.3,0.3-0.5,0.4c-5.3,2.7-8.7,7.6-9.5,13.6l37.7-0.1
		c-0.7-6-4.1-10.8-9.4-13.5c-0.2-0.1-0.3-0.2-0.5-0.4c-0.2,0-0.4,0-0.6-0.1c-2.6-1.1-5.4-1.7-8.4-1.7s-5.8,0.6-8.3,1.7
		C32.2,59.8,32,59.8,31.8,59.8z"/>
	<path class="st0" d="M31.3,69.1c-1.6,0-2.9-1.3-2.9-2.9s1.3-2.9,2.9-2.9s2.9,1.3,2.9,2.9S32.9,69.1,31.3,69.1z"/>
	<path class="st0" d="M49.9,69.1c-1.6,0-2.9-1.3-2.9-2.9s1.3-2.9,2.9-2.9s2.9,1.3,2.9,2.9S51.5,69.1,49.9,69.1z"/>
</g>
</svg>
