<?xml version="1.0" encoding="utf-8"?>
<!DOCTYPE svg PUBLIC "-//W3C//DTD SVG 1.1//EN" "http://www.w3.org/Graphics/SVG/1.1/DTD/svg11.dtd">
<svg xmlns="http://www.w3.org/2000/svg" xmlns:xlink="http://www.w3.org/1999/xlink" version="1.1" baseProfile="full" width="3051.86" height="2212.05" viewBox="0 0 3051.86 2212.05" enable-background="new 0 0 3051.86 2212.05" xml:space="preserve">
	<rect x="226.585" y="24.0264" fill="#FFFFFF" fill-opacity="1" stroke-linejoin="round" width="2804" height="1616"/>
	<path fill="#3D3D3D" fill-opacity="1" stroke-linejoin="round" d="M 1696.67,2016.69L 2751.15,2144.03L 2772.08,2210.62L 1700.42,2133.57L 1537.75,2133.57L 489.507,2212.05L 506.631,2143.56L 1538.28,2019.94L 1538.28,1669.48L 192.359,1669.48L 192.359,0L 3051.86,0L 3051.86,1669.48L 1696.67,1669.48L 1696.67,2016.69 Z M 252.277,56.7178L 252.277,1612.75L 2991.93,1612.75L 2991.93,56.7178L 252.277,56.7178 Z "/>
	<g>
		<g>
			<path fill="#FFFFFF" fill-opacity="1" stroke-linejoin="round" d="M 51.2656,724.55L 6.26563,765.55L 5.76563,1735.05L 36.7656,1774.05L 464.271,1781.55L 504.768,1726.06L 506.268,766.104L 458.271,728.605L 404.273,736.105L 390.773,746.604L 342.775,749.604L 216.782,742.104L 51.2656,724.55 Z "/>
			<path fill="#3D3D3D" fill-opacity="1" stroke-linejoin="round" d="M 0,1739.57C 0,1779.58 32.4385,1812.02 72.4531,1812.02L 438.979,1812.02C 478.994,1812.02 511.432,1779.58 511.432,1739.57L 511.432,770.593C 511.432,730.578 478.994,698.14 438.979,698.14L 72.4531,698.14C 32.4385,698.14 0,730.578 0,770.593L 0,1739.57 Z M 225.882,730.244C 225.882,728.151 227.578,726.455 229.67,726.455L 281.761,726.455C 283.854,726.455 285.549,728.151 285.549,730.244C 285.549,732.336 283.854,734.032 281.761,734.032L 229.67,734.032C 227.578,734.032 225.882,732.336 225.882,730.244 Z M 345.452,732.374C 345.452,726.49 350.223,721.72 356.107,721.72C 361.991,721.72 366.762,726.49 366.762,732.374C 366.762,738.259 361.992,743.029 356.107,743.029C 350.223,743.029 345.452,738.259 345.452,732.374 Z M 10.8906,790.875C 10.8906,768.906 28.6992,751.097 50.668,751.097L 460.762,751.097C 482.73,751.097 500.539,768.906 500.539,790.875L 500.539,1719.28C 500.539,1741.25 482.73,1759.06 460.762,1759.06L 50.668,1759.06C 28.6992,1759.06 10.8906,1741.25 10.8906,1719.28L 10.8906,790.875 Z "/>
		</g>
		<g>
			<path fill="#3D3D3D" fill-opacity="1" stroke-width="0.2" stroke-linejoin="round" d="M 323.408,1357.62C 303.995,1370.46 280.723,1377.94 255.702,1377.94C 207.537,1377.94 165.846,1350.22 145.707,1309.87C 135.535,1304.51 126.214,1298.91 117.886,1293.19C 134.564,1353.64 189.949,1398.03 255.703,1398.03C 294.747,1398.03 330.136,1382.38 355.936,1357C 345.861,1357.85 334.957,1358.06 323.408,1357.62 Z "/>
			<path fill="#3D3D3D" fill-opacity="1" stroke-width="0.2" stroke-linejoin="round" d="M 135.494,1280.58C 127.229,1275.52 119.726,1270.31 113.093,1265.04C 88.4883,1245.49 75.8447,1225.06 80.5664,1207.71C 85.2764,1190.41 106.427,1179.21 137.401,1174.81C 163.121,1136.98 206.51,1112.13 255.702,1112.13C 331.512,1112.13 393.539,1171.14 398.354,1245.73C 422.948,1265.28 435.586,1285.71 430.864,1303.06C 426.131,1320.45 404.783,1331.67 373.543,1336.03C 365.141,1337.2 356.023,1337.88 346.321,1338.04C 314.692,1338.58 276.85,1333.71 237.324,1322.95C 197.69,1312.16 162.514,1297.13 135.494,1280.58 Z M 362.18,1316.41C 372.48,1298.57 378.424,1277.9 378.559,1255.84L 378.561,1255.08C 378.561,1187.23 323.555,1132.22 255.702,1132.22C 210.59,1132.22 171.156,1156.54 149.791,1192.77C 139.037,1211.02 132.861,1232.28 132.844,1254.98C 158.438,1272.11 197.115,1289 241.856,1301.18C 288.039,1313.75 331.196,1318.72 362.18,1316.41 Z M 386.73,1312.32C 399.053,1308.71 406.997,1302.99 409.111,1295.22C 411.264,1287.31 407.137,1278.18 398.02,1268.63L 397.828,1270.53C 396.247,1285.24 392.433,1299.29 386.73,1312.32 Z M 125.787,1195.35L 126.822,1193.16C 112.287,1196.73 103.009,1202.78 100.696,1211.27C 98.4082,1219.68 103.217,1229.47 113.572,1239.66C 115.252,1224 119.463,1209.09 125.787,1195.35 Z "/>
		</g>
	</g>
	<g>
		<g>
			<path fill="#3D3D3D" fill-opacity="1" stroke-width="0.2" stroke-linejoin="round" d="M 1406.07,296.813C 1435.06,296.813 1458.56,320.316 1458.56,349.308C 1458.56,378.3 1435.06,401.802 1406.07,401.802C 1377.08,401.802 1353.58,378.3 1353.58,349.308C 1353.58,320.316 1377.08,296.813 1406.07,296.813 Z "/>
			<path fill="#3D3D3D" fill-opacity="1" stroke-width="0.2" stroke-linejoin="round" d="M 1549.36,349.31C 1549.36,330.717 1545.82,312.95 1539.37,296.648L 1440.07,296.648C 1483.58,328.492 1465.61,372.315 1465.61,372.315L 1396.17,492.26C 1399.44,492.483 1402.74,492.598 1406.07,492.598C 1485.21,492.598 1549.36,428.445 1549.36,349.31 Z "/>
			<path fill="#3D3D3D" fill-opacity="1" stroke-width="0.2" stroke-linejoin="round" d="M 1333.36,226.204C 1317.23,235.442 1303.57,247.343 1292.63,261.036L 1341.96,347.215C 1347.98,293.636 1394.94,287.458 1394.94,287.458L 1533.54,288.128C 1532.1,285.177 1530.56,282.253 1528.91,279.363C 1489.59,210.687 1402.04,186.887 1333.36,226.204 Z "/>
			<path fill="#3D3D3D" fill-opacity="1" stroke-width="0.2" stroke-linejoin="round" d="M 1335.06,475.178C 1351.2,484.42 1368.38,490.178 1385.72,492.688L 1435.08,406.521C 1385.83,428.446 1356.73,391.069 1356.73,391.069L 1287.17,271.194C 1285.35,273.923 1283.61,276.733 1281.95,279.622C 1242.62,348.29 1266.4,435.843 1335.06,475.178 Z "/>
		</g>
		<g>
			<path fill="#3D3D3D" fill-opacity="1" stroke-linejoin="round" d="M 1667.13,383.264C 1661.58,383.264 1656.42,382.236 1651.64,380.184C 1646.86,378.13 1642.72,375.354 1639.22,371.854C 1635.72,368.354 1632.97,364.23 1630.97,359.483C 1628.97,354.736 1627.97,349.67 1627.97,344.283C 1627.97,338.736 1628.99,333.59 1631.04,328.844C 1633.09,324.097 1635.86,319.97 1639.36,316.464C 1642.86,312.957 1646.98,310.2 1651.71,308.193C 1656.44,306.187 1661.54,305.184 1667.01,305.184C 1671.1,305.184 1674.98,305.743 1678.65,306.863C 1682.32,307.983 1685.69,309.58 1688.76,311.653C 1691.83,313.727 1694.54,316.187 1696.89,319.033C 1699.24,321.88 1701.09,325.03 1702.45,328.483L 1695.67,331.323C 1693.2,325.23 1689.47,320.417 1684.48,316.884C 1679.49,313.35 1673.66,311.583 1667.01,311.583C 1662.57,311.583 1658.41,312.427 1654.52,314.113C 1650.63,315.8 1647.28,318.137 1644.47,321.123C 1641.66,324.11 1639.44,327.57 1637.82,331.503C 1636.2,335.437 1635.39,339.696 1635.39,344.283C 1635.39,348.79 1636.2,353.033 1637.82,357.014C 1639.44,360.993 1641.68,364.453 1644.54,367.394C 1647.4,370.333 1650.77,372.646 1654.65,374.333C 1658.53,376.021 1662.73,376.863 1667.25,376.863C 1674.17,376.863 1680.08,375.021 1684.99,371.333C 1689.9,367.646 1693.54,362.884 1695.93,357.043L 1702.85,360.003C 1701.4,363.377 1699.52,366.497 1697.21,369.363C 1694.9,372.23 1692.24,374.693 1689.21,376.753C 1686.18,378.813 1682.81,380.413 1679.1,381.554C 1675.39,382.693 1671.4,383.264 1667.13,383.264 Z "/>
			<path fill="#3D3D3D" fill-opacity="1" stroke-linejoin="round" d="M 1721.01,286.623L 1728.05,286.623L 1728.05,321.424C 1730.61,316.61 1734.37,312.7 1739.32,309.693C 1744.27,306.687 1750.04,305.184 1756.61,305.184C 1761.64,305.184 1766.18,305.977 1770.23,307.563C 1774.29,309.15 1777.79,311.443 1780.73,314.443C 1783.68,317.443 1785.94,321.066 1787.52,325.313C 1789.1,329.561 1789.89,334.384 1789.89,339.783L 1789.89,381.983L 1782.45,381.983L 1782.45,339.483C 1782.45,335.271 1781.86,331.46 1780.66,328.054C 1779.47,324.646 1777.72,321.717 1775.42,319.264C 1773.12,316.811 1770.33,314.917 1767.04,313.583C 1763.75,312.25 1759.98,311.583 1755.71,311.583C 1751.78,311.583 1748.13,312.293 1744.76,313.714C 1741.39,315.134 1738.47,317.113 1736,319.653C 1733.53,322.193 1731.58,325.163 1730.17,328.563C 1728.76,331.964 1728.05,335.65 1728.05,339.623L 1728.05,381.983L 1721.01,381.983L 1721.01,286.623 Z "/>
			<path fill="#3D3D3D" fill-opacity="1" stroke-linejoin="round" d="M 1811.77,306.464L 1818.81,306.464L 1818.81,321.083C 1820.77,316.39 1823.63,312.78 1827.38,310.253C 1831.13,307.727 1835.66,306.464 1840.95,306.464C 1844.29,306.464 1847.13,306.783 1849.47,307.424C 1851.82,308.063 1854.14,308.983 1856.45,310.184L 1852.09,317.663C 1850.38,316.17 1848.66,314.997 1846.91,314.144C 1845.16,313.29 1843.09,312.863 1840.69,312.863C 1834.04,312.863 1828.77,315.07 1824.89,319.483C 1821.01,323.896 1819.07,330.043 1819.07,337.924L 1819.07,381.983L 1811.77,381.983L 1811.77,306.464 Z "/>
			<path fill="#3D3D3D" fill-opacity="1" stroke-linejoin="round" d="M 1899.83,383.264C 1894.46,383.264 1889.4,382.26 1884.67,380.253C 1879.94,378.247 1875.8,375.49 1872.25,371.983C 1868.7,368.477 1865.93,364.35 1863.93,359.604C 1861.93,354.856 1860.93,349.75 1860.93,344.283C 1860.93,338.816 1861.93,333.71 1863.93,328.964C 1865.93,324.217 1868.7,320.07 1872.25,316.523C 1875.8,312.977 1879.94,310.2 1884.67,308.193C 1889.4,306.187 1894.46,305.184 1899.83,305.184C 1905.2,305.184 1910.26,306.187 1915,308.193C 1919.74,310.2 1923.86,312.977 1927.36,316.523C 1930.86,320.07 1933.63,324.217 1935.68,328.964C 1937.73,333.71 1938.75,338.816 1938.75,344.283C 1938.75,349.75 1937.73,354.856 1935.68,359.604C 1933.63,364.35 1930.86,368.477 1927.36,371.983C 1923.86,375.49 1919.74,378.247 1915,380.253C 1910.26,382.26 1905.2,383.264 1899.83,383.264 Z M 1899.83,376.863C 1904.19,376.863 1908.29,376.021 1912.13,374.333C 1915.97,372.646 1919.3,370.333 1922.11,367.394C 1924.92,364.453 1927.14,360.993 1928.76,357.014C 1930.38,353.033 1931.19,348.79 1931.19,344.283C 1931.19,339.696 1930.38,335.437 1928.76,331.503C 1927.14,327.57 1924.92,324.11 1922.11,321.123C 1919.3,318.137 1915.97,315.8 1912.13,314.113C 1908.29,312.427 1904.19,311.583 1899.83,311.583C 1895.39,311.583 1891.25,312.427 1887.41,314.113C 1883.57,315.8 1880.24,318.137 1877.43,321.123C 1874.62,324.11 1872.4,327.57 1870.78,331.503C 1869.16,335.437 1868.35,339.696 1868.35,344.283C 1868.35,348.79 1869.16,353.033 1870.78,357.014C 1872.4,360.993 1874.62,364.453 1877.43,367.394C 1880.24,370.333 1883.57,372.646 1887.41,374.333C 1891.25,376.021 1895.39,376.863 1899.83,376.863 Z "/>
			<path fill="#3D3D3D" fill-opacity="1" stroke-linejoin="round" d="M 1957.69,306.464L 1964.73,306.464L 1964.73,321.144C 1967.12,316.344 1970.66,312.483 1975.35,309.563C 1980.04,306.644 1985.59,305.184 1991.99,305.184C 1999.5,305.184 2005.7,306.9 2010.61,310.333C 2015.52,313.767 2018.96,318.316 2020.93,323.983C 2023.14,318.49 2026.88,313.983 2032.12,310.464C 2037.37,306.943 2043.58,305.184 2050.75,305.184C 2055.95,305.184 2060.62,305.997 2064.76,307.623C 2068.9,309.25 2072.4,311.523 2075.26,314.443C 2078.12,317.363 2080.32,320.86 2081.85,324.934C 2083.38,329.007 2084.15,333.53 2084.15,338.503L 2084.15,381.983L 2076.85,381.983L 2076.85,337.804C 2076.85,334.017 2076.23,330.51 2075,327.283C 2073.77,324.057 2072.02,321.28 2069.76,318.953C 2067.5,316.627 2064.75,314.816 2061.5,313.523C 2058.25,312.23 2054.63,311.583 2050.61,311.583C 2046.95,311.583 2043.49,312.187 2040.25,313.394C 2037.01,314.6 2034.2,316.344 2031.8,318.623C 2029.41,320.903 2027.53,323.66 2026.17,326.894C 2024.81,330.127 2024.13,333.764 2024.13,337.804L 2024.13,381.983L 2016.83,381.983L 2016.83,336.384C 2016.83,332.677 2016.23,329.297 2015.04,326.243C 2013.85,323.19 2012.16,320.587 2009.98,318.434C 2007.8,316.28 2005.15,314.6 2002.04,313.394C 1998.93,312.187 1995.41,311.583 1991.49,311.583C 1987.65,311.583 1984.11,312.25 1980.86,313.583C 1977.61,314.917 1974.82,316.79 1972.47,319.203C 1970.13,321.617 1968.29,324.523 1966.97,327.924C 1965.65,331.323 1964.99,335.09 1964.99,339.224L 1964.99,381.983L 1957.69,381.983L 1957.69,306.464 Z "/>
			<path fill="#3D3D3D" fill-opacity="1" stroke-linejoin="round" d="M 2142.13,383.264C 2136.08,383.264 2130.62,382.26 2125.75,380.253C 2120.88,378.247 2116.77,375.51 2113.4,372.043C 2110.03,368.577 2107.43,364.493 2105.6,359.793C 2103.77,355.094 2102.85,350.01 2102.85,344.543C 2102.85,338.983 2103.83,333.811 2105.79,329.023C 2107.75,324.236 2110.46,320.094 2113.91,316.594C 2117.36,313.094 2121.48,310.316 2126.26,308.264C 2131.04,306.21 2136.2,305.184 2141.75,305.184C 2147.22,305.184 2152.27,306.11 2156.92,307.964C 2161.57,309.816 2165.6,312.43 2169.01,315.804C 2172.42,319.177 2175.09,323.16 2177.01,327.753C 2178.93,332.347 2179.89,337.384 2179.89,342.863L 2179.89,346.144L 2109.89,346.144C 2110.14,350.543 2111.08,354.634 2112.7,358.413C 2114.32,362.193 2116.54,365.443 2119.35,368.163C 2122.16,370.884 2125.49,373.014 2129.33,374.554C 2133.17,376.094 2137.44,376.863 2142.13,376.863C 2149.38,376.863 2155.49,375.057 2160.44,371.443C 2165.39,367.83 2169.1,362.844 2171.57,356.483L 2178.11,359.623C 2174.78,367.156 2170.17,372.98 2164.28,377.094C 2158.39,381.207 2151.01,383.264 2142.13,383.264 Z M 2141.75,311.583C 2137.58,311.583 2133.7,312.313 2130.11,313.773C 2126.52,315.233 2123.34,317.203 2120.57,319.684C 2117.8,322.163 2115.49,325.12 2113.66,328.554C 2111.83,331.986 2110.65,335.717 2110.13,339.743L 2172.47,339.743C 2172.14,335.623 2171.14,331.83 2169.47,328.363C 2167.8,324.896 2165.65,321.92 2163,319.434C 2160.35,316.946 2157.24,315.017 2153.66,313.644C 2150.08,312.271 2146.11,311.583 2141.75,311.583 Z "/>
			<path fill="#3D3D3D" fill-opacity="1" stroke-linejoin="round" d="M 2193.47,376.804C 2193.47,374.95 2194.07,373.43 2195.26,372.243C 2196.45,371.057 2197.94,370.464 2199.73,370.464C 2201.7,370.464 2203.24,371.057 2204.35,372.243C 2205.46,373.43 2206.01,374.95 2206.01,376.804C 2206.01,378.644 2205.46,380.18 2204.35,381.413C 2203.24,382.646 2201.7,383.264 2199.73,383.264C 2197.77,383.264 2196.24,382.646 2195.13,381.413C 2194.02,380.18 2193.47,378.644 2193.47,376.804 Z M 2193.47,323.043C 2193.47,321.19 2194.07,319.67 2195.26,318.483C 2196.45,317.297 2197.94,316.703 2199.73,316.703C 2201.7,316.703 2203.24,317.297 2204.35,318.483C 2205.46,319.67 2206.01,321.19 2206.01,323.043C 2206.01,324.884 2205.46,326.42 2204.35,327.653C 2203.24,328.887 2201.7,329.503 2199.73,329.503C 2197.77,329.503 2196.24,328.887 2195.13,327.653C 2194.02,326.42 2193.47,324.884 2193.47,323.043 Z "/>
			<path fill="#3D3D3D" fill-opacity="1" stroke-linejoin="round" d="M 2259.65,288.543L 2267.57,288.543L 2223.29,381.983L 2215.35,381.983L 2259.65,288.543 Z "/>
			<path fill="#3D3D3D" fill-opacity="1" stroke-linejoin="round" d="M 2318.53,288.543L 2326.45,288.543L 2282.17,381.983L 2274.23,381.983L 2318.53,288.543 Z "/>
			<path fill="#3D3D3D" fill-opacity="1" stroke-linejoin="round" d="M 2340.41,306.464L 2347.71,306.464L 2347.71,381.983L 2340.41,381.983L 2340.41,306.464 Z M 2337.85,289.764C 2337.85,287.91 2338.45,286.39 2339.64,285.203C 2340.83,284.017 2342.33,283.424 2344.13,283.424C 2346.09,283.424 2347.62,284.017 2348.73,285.203C 2349.84,286.39 2350.39,287.91 2350.39,289.764C 2350.39,291.604 2349.84,293.14 2348.73,294.373C 2347.62,295.606 2346.09,296.224 2344.13,296.224C 2342.16,296.224 2340.62,295.606 2339.51,294.373C 2338.4,293.14 2337.85,291.604 2337.85,289.764 Z "/>
			<path fill="#3D3D3D" fill-opacity="1" stroke-linejoin="round" d="M 2369.85,306.464L 2376.89,306.464L 2376.89,322.063C 2379.37,317.077 2383.13,313.017 2388.16,309.884C 2393.2,306.75 2399.04,305.184 2405.69,305.184C 2410.73,305.184 2415.28,305.977 2419.33,307.563C 2423.38,309.15 2426.88,311.443 2429.82,314.443C 2432.76,317.443 2435.02,321.066 2436.6,325.313C 2438.18,329.561 2438.97,334.384 2438.97,339.783L 2438.97,381.983L 2431.67,381.983L 2431.67,339.403C 2431.67,335.177 2431.05,331.36 2429.82,327.953C 2428.59,324.547 2426.82,321.637 2424.51,319.224C 2422.2,316.811 2419.39,314.934 2416.06,313.594C 2412.73,312.253 2408.98,311.583 2404.79,311.583C 2400.87,311.583 2397.22,312.297 2393.85,313.724C 2390.48,315.15 2387.55,317.113 2385.08,319.613C 2382.61,322.113 2380.67,325.066 2379.26,328.474C 2377.85,331.88 2377.15,335.57 2377.15,339.543L 2377.15,381.983L 2369.85,381.983L 2369.85,306.464 Z "/>
			<path fill="#3D3D3D" fill-opacity="1" stroke-linejoin="round" d="M 2484.03,383.264C 2477.63,383.264 2471.87,381.983 2466.75,379.424C 2461.63,376.863 2457.58,373.563 2454.59,369.523L 2460.35,364.964C 2462.82,368.337 2466.12,371.163 2470.26,373.443C 2474.4,375.724 2479.03,376.863 2484.15,376.863C 2487.56,376.863 2490.53,376.437 2493.05,375.583C 2495.57,374.73 2497.68,373.577 2499.39,372.123C 2501.1,370.67 2502.38,368.98 2503.23,367.054C 2504.08,365.127 2504.51,363.137 2504.51,361.083C 2504.51,358.604 2503.89,356.573 2502.65,354.993C 2501.41,353.413 2499.77,352.09 2497.72,351.023C 2495.67,349.957 2493.35,349.061 2490.75,348.333C 2488.15,347.606 2485.48,346.903 2482.75,346.224C 2479.67,345.45 2476.66,344.594 2473.72,343.653C 2470.78,342.714 2468.16,341.497 2465.85,340.003C 2463.54,338.51 2461.69,336.606 2460.28,334.293C 2458.88,331.98 2458.17,329.117 2458.17,325.703C 2458.17,322.97 2458.77,320.363 2459.96,317.884C 2461.15,315.403 2462.88,313.224 2465.14,311.344C 2467.4,309.464 2470.11,307.967 2473.27,306.854C 2476.43,305.74 2479.97,305.184 2483.89,305.184C 2489.28,305.184 2494.23,306.214 2498.75,308.273C 2503.27,310.333 2507.02,313.196 2510.01,316.863L 2504.51,321.283C 2501.95,318.137 2499.01,315.733 2495.68,314.073C 2492.36,312.413 2488.42,311.583 2483.89,311.583C 2478.01,311.583 2473.47,312.906 2470.27,315.554C 2467.07,318.2 2465.47,321.53 2465.47,325.543C 2465.47,327.837 2466.07,329.753 2467.26,331.293C 2468.45,332.833 2470.03,334.137 2471.99,335.203C 2473.95,336.271 2476.19,337.167 2478.71,337.894C 2481.23,338.62 2483.86,339.323 2486.59,340.003C 2489.66,340.764 2492.71,341.637 2495.74,342.623C 2498.77,343.61 2501.46,344.87 2503.81,346.403C 2506.16,347.937 2508.08,349.856 2509.57,352.163C 2511.06,354.47 2511.81,357.41 2511.81,360.983C 2511.81,363.637 2511.25,366.287 2510.14,368.934C 2509.03,371.58 2507.34,373.97 2505.08,376.104C 2502.82,378.236 2499.94,379.964 2496.44,381.283C 2492.94,382.604 2488.8,383.264 2484.03,383.264 Z "/>
			<path fill="#3D3D3D" fill-opacity="1" stroke-linejoin="round" d="M 2568.25,383.264C 2565.01,383.264 2561.83,382.887 2558.72,382.134C 2555.61,381.38 2552.68,380.247 2549.95,378.733C 2547.22,377.22 2544.72,375.354 2542.46,373.134C 2540.2,370.913 2538.34,368.377 2536.89,365.523L 2536.89,416.543L 2529.85,416.543L 2529.85,306.464L 2536.77,306.464L 2536.77,324.123C 2538.21,321.097 2540.08,318.417 2542.39,316.083C 2544.7,313.75 2547.26,311.76 2550.07,310.113C 2552.88,308.467 2555.85,307.233 2558.97,306.413C 2562.09,305.594 2565.18,305.184 2568.25,305.184C 2573.72,305.184 2578.8,306.21 2583.49,308.264C 2588.18,310.316 2592.26,313.117 2595.71,316.663C 2599.16,320.21 2601.87,324.354 2603.83,329.094C 2605.79,333.833 2606.77,338.896 2606.77,344.283C 2606.77,349.67 2605.79,354.714 2603.83,359.413C 2601.87,364.113 2599.16,368.236 2595.71,371.783C 2592.26,375.33 2588.18,378.13 2583.49,380.184C 2578.8,382.236 2573.72,383.264 2568.25,383.264 Z M 2567.87,376.863C 2572.22,376.863 2576.31,376.021 2580.15,374.333C 2583.99,372.646 2587.34,370.333 2590.2,367.394C 2593.06,364.453 2595.3,360.993 2596.92,357.014C 2598.54,353.033 2599.35,348.79 2599.35,344.283C 2599.35,339.696 2598.54,335.437 2596.92,331.503C 2595.3,327.57 2593.06,324.11 2590.2,321.123C 2587.34,318.137 2583.99,315.8 2580.15,314.113C 2576.31,312.427 2572.22,311.583 2567.87,311.583C 2563.43,311.583 2559.27,312.45 2555.39,314.184C 2551.51,315.917 2548.12,318.253 2545.21,321.193C 2542.3,324.134 2540.04,327.594 2538.42,331.573C 2536.8,335.554 2535.99,339.79 2535.99,344.283C 2535.99,348.79 2536.8,353.033 2538.42,357.014C 2540.04,360.993 2542.3,364.453 2545.21,367.394C 2548.12,370.333 2551.51,372.646 2555.39,374.333C 2559.27,376.021 2563.43,376.863 2567.87,376.863 Z "/>
			<path fill="#3D3D3D" fill-opacity="1" stroke-linejoin="round" d="M 2661.81,383.264C 2655.76,383.264 2650.3,382.26 2645.43,380.253C 2640.56,378.247 2636.45,375.51 2633.08,372.043C 2629.71,368.577 2627.11,364.493 2625.28,359.793C 2623.45,355.094 2622.53,350.01 2622.53,344.543C 2622.53,338.983 2623.51,333.811 2625.47,329.023C 2627.43,324.236 2630.14,320.094 2633.59,316.594C 2637.04,313.094 2641.16,310.316 2645.94,308.264C 2650.72,306.21 2655.88,305.184 2661.43,305.184C 2666.9,305.184 2671.95,306.11 2676.6,307.964C 2681.25,309.816 2685.28,312.43 2688.69,315.804C 2692.1,319.177 2694.77,323.16 2696.69,327.753C 2698.61,332.347 2699.57,337.384 2699.57,342.863L 2699.57,346.144L 2629.57,346.144C 2629.82,350.543 2630.76,354.634 2632.38,358.413C 2634,362.193 2636.22,365.443 2639.03,368.163C 2641.84,370.884 2645.17,373.014 2649.01,374.554C 2652.85,376.094 2657.12,376.863 2661.81,376.863C 2669.06,376.863 2675.17,375.057 2680.12,371.443C 2685.07,367.83 2688.78,362.844 2691.25,356.483L 2697.79,359.623C 2694.46,367.156 2689.85,372.98 2683.96,377.094C 2678.07,381.207 2670.69,383.264 2661.81,383.264 Z M 2661.43,311.583C 2657.26,311.583 2653.38,312.313 2649.79,313.773C 2646.2,315.233 2643.02,317.203 2640.25,319.684C 2637.48,322.163 2635.17,325.12 2633.34,328.554C 2631.51,331.986 2630.33,335.717 2629.81,339.743L 2692.15,339.743C 2691.82,335.623 2690.82,331.83 2689.15,328.363C 2687.48,324.896 2685.33,321.92 2682.68,319.434C 2680.03,316.946 2676.92,315.017 2673.34,313.644C 2669.76,312.271 2665.79,311.583 2661.43,311.583 Z "/>
			<path fill="#3D3D3D" fill-opacity="1" stroke-linejoin="round" d="M 2753.85,383.264C 2748.3,383.264 2743.14,382.236 2738.36,380.184C 2733.58,378.13 2729.44,375.354 2725.94,371.854C 2722.44,368.354 2719.69,364.23 2717.69,359.483C 2715.69,354.736 2714.69,349.67 2714.69,344.283C 2714.69,338.736 2715.71,333.59 2717.76,328.844C 2719.81,324.097 2722.58,319.97 2726.08,316.464C 2729.58,312.957 2733.7,310.2 2738.43,308.193C 2743.16,306.187 2748.26,305.184 2753.73,305.184C 2757.82,305.184 2761.7,305.743 2765.37,306.863C 2769.04,307.983 2772.41,309.58 2775.48,311.653C 2778.55,313.727 2781.26,316.187 2783.61,319.033C 2785.96,321.88 2787.81,325.03 2789.17,328.483L 2782.39,331.323C 2779.92,325.23 2776.19,320.417 2771.2,316.884C 2766.21,313.35 2760.38,311.583 2753.73,311.583C 2749.29,311.583 2745.13,312.427 2741.24,314.113C 2737.35,315.8 2734,318.137 2731.19,321.123C 2728.38,324.11 2726.16,327.57 2724.54,331.503C 2722.92,335.437 2722.11,339.696 2722.11,344.283C 2722.11,348.79 2722.92,353.033 2724.54,357.014C 2726.16,360.993 2728.4,364.453 2731.26,367.394C 2734.12,370.333 2737.49,372.646 2741.37,374.333C 2745.25,376.021 2749.45,376.863 2753.97,376.863C 2760.89,376.863 2766.8,375.021 2771.71,371.333C 2776.62,367.646 2780.26,362.884 2782.65,357.043L 2789.57,360.003C 2788.12,363.377 2786.24,366.497 2783.93,369.363C 2781.62,372.23 2778.96,374.693 2775.93,376.753C 2772.9,378.813 2769.53,380.413 2765.82,381.554C 2762.11,382.693 2758.12,383.264 2753.85,383.264 Z "/>
			<path fill="#3D3D3D" fill-opacity="1" stroke-linejoin="round" d="M 2801.33,306.464L 2814.65,306.464L 2814.65,288.983L 2821.69,284.323L 2821.69,306.464L 2841.41,306.464L 2841.41,312.863L 2821.69,312.863L 2821.69,355.063C 2821.69,359.424 2821.97,362.953 2822.52,365.653C 2823.07,368.354 2824.08,370.443 2825.53,371.924C 2826.98,373.403 2828.99,374.384 2831.55,374.863C 2834.11,375.344 2837.4,375.583 2841.41,375.583L 2841.41,381.983L 2840.25,381.983C 2835.13,381.983 2830.93,381.594 2827.64,380.813C 2824.35,380.033 2821.75,378.63 2819.83,376.604C 2817.91,374.577 2816.57,371.811 2815.8,368.304C 2815.04,364.797 2814.65,360.323 2814.65,354.884L 2814.65,312.863L 2801.33,312.863L 2801.33,306.464 Z "/>
		</g>
	</g>
</svg>
