<?xml version="1.0" encoding="utf-8"?>
<!-- Generator: Adobe Illustrator 22.0.1, SVG Export Plug-In . SVG Version: 6.00 Build 0)  -->
<svg version="1.1" id="Layer_1" xmlns="http://www.w3.org/2000/svg" xmlns:xlink="http://www.w3.org/1999/xlink" x="0px" y="0px"
	 viewBox="0 0 181 181" style="enable-background:new 0 0 181 181;" xml:space="preserve">
<style type="text/css">
	.st0{fill:#FFFFFF;}
</style>
<path class="st0" d="M54,134.4c-0.3,0-0.6-0.1-0.9-0.2c-0.5-0.3-0.9-0.9-0.9-1.5V48.3c0-0.6,0.3-1.2,0.9-1.5c0.5-0.3,1.2-0.3,1.8,0
	L128,89c0.5,0.3,0.9,0.9,0.9,1.5s-0.3,1.2-0.9,1.5l-73.2,42.2C54.6,134.4,54.3,134.4,54,134.4z M55.7,51.3v78.3l67.8-39.2L55.7,51.3
	z"/>
<g>
	<path class="st0" d="M110,167.8c0.8,0.7,1.7,1.2,2.8,1.6c1,0.4,2.1,0.6,3.2,0.6c0.8,0,1.5-0.1,2.2-0.3s1.3-0.5,1.7-0.9
		c0.5-0.4,0.9-0.9,1.2-1.4c0.3-0.6,0.4-1.2,0.4-1.9s-0.1-1.3-0.4-1.9c-0.3-0.6-0.7-1.1-1.2-1.5s-1.1-0.7-1.8-0.9s-1.5-0.3-2.3-0.3
		h-1.9v-1.7h1.5c1.6,0,2.8-0.4,3.7-1.2s1.3-1.8,1.3-3c0-0.6-0.1-1.2-0.4-1.7c-0.2-0.5-0.6-0.9-0.9-1.3c-0.4-0.3-0.9-0.6-1.4-0.8
		s-1.1-0.3-1.7-0.3c-0.9,0-1.8,0.2-2.7,0.6c-0.9,0.4-1.8,0.9-2.6,1.6l-1-1.4c0.9-0.8,1.9-1.4,3-1.9c1.1-0.4,2.2-0.7,3.4-0.7
		c1,0,1.8,0.1,2.6,0.4c0.8,0.3,1.4,0.7,2,1.2s1,1.1,1.3,1.8s0.4,1.4,0.4,2.2c0,0.7-0.1,1.3-0.3,1.9c-0.2,0.6-0.5,1-0.9,1.5
		c-0.4,0.4-0.8,0.8-1.2,1.1s-0.9,0.5-1.4,0.7c0.6,0.1,1.1,0.4,1.7,0.7c0.6,0.3,1.1,0.7,1.5,1.2s0.8,1,1.1,1.7
		c0.3,0.6,0.4,1.4,0.4,2.2c0,0.9-0.2,1.7-0.5,2.5c-0.4,0.7-0.9,1.4-1.5,1.9s-1.4,1-2.3,1.3c-0.9,0.3-2,0.4-3.1,0.4
		c-1.3,0-2.5-0.2-3.7-0.6c-1.2-0.4-2.3-1-3.2-1.9L110,167.8z"/>
	<path class="st0" d="M140,152.2c-1.5-0.9-2.9-1.3-4.3-1.3c-1.1,0-2,0.3-2.8,0.8s-1.4,1.2-1.9,2.1c-0.5,0.9-0.8,1.9-1.1,3.1
		c-0.2,1.2-0.3,2.5-0.4,3.8c0.6-0.7,1.5-1.3,2.4-1.9c1-0.6,2.2-0.9,3.6-0.9c1,0,1.9,0.2,2.7,0.5s1.5,0.8,2,1.4
		c0.6,0.6,1,1.3,1.3,2.2c0.3,0.8,0.4,1.7,0.4,2.7s-0.2,2-0.5,2.9s-0.8,1.6-1.4,2.2c-0.6,0.6-1.3,1.1-2.2,1.4
		c-0.8,0.3-1.8,0.5-2.7,0.5c-1.3,0-2.4-0.3-3.4-0.8c-1-0.6-1.7-1.3-2.4-2.3c-0.6-1-1.1-2.1-1.4-3.5c-0.3-1.3-0.4-2.8-0.4-4.3
		c0-1.4,0.1-2.7,0.4-4.1c0.3-1.4,0.7-2.6,1.3-3.7c0.6-1.1,1.4-2,2.4-2.7s2.3-1,3.8-1c1.7,0,3.4,0.5,5,1.5L140,152.2z M132.3,160.4
		c-1,0.5-1.8,1.2-2.5,2.1c0.2,2.3,0.8,4.1,1.7,5.4c0.9,1.3,2.2,2,3.9,2c0.7,0,1.3-0.1,1.9-0.4c0.6-0.3,1.1-0.6,1.5-1.1s0.7-1,1-1.6
		c0.2-0.6,0.4-1.3,0.4-2.1c0-1.5-0.4-2.7-1.3-3.6c-0.8-0.9-2-1.4-3.6-1.4C134.3,159.6,133.1,159.9,132.3,160.4z"/>
	<path class="st0" d="M155.4,169.1c0.7-0.5,1.3-1.2,1.7-2.1c0.4-0.9,0.8-1.9,0.9-3c0.2-1.2,0.3-2.4,0.3-3.6c0-1.3-0.1-2.5-0.3-3.6
		c-0.2-1.2-0.5-2.2-0.9-3c-0.4-0.9-1-1.6-1.7-2.1s-1.6-0.8-2.6-0.8s-1.9,0.3-2.6,0.8c-0.7,0.5-1.3,1.2-1.7,2.1
		c-0.4,0.9-0.8,1.9-0.9,3c-0.2,1.2-0.3,2.4-0.3,3.6c0,1.3,0.1,2.5,0.3,3.6c0.2,1.2,0.5,2.2,0.9,3c0.4,0.9,1,1.6,1.7,2.1
		s1.6,0.8,2.6,0.8C153.8,169.9,154.6,169.6,155.4,169.1z M158.5,168.3c-0.6,1-1.4,1.8-2.3,2.5c-1,0.6-2.1,0.9-3.5,0.9
		s-2.5-0.3-3.5-0.9c-1-0.6-1.7-1.4-2.3-2.5c-0.6-1-1-2.2-1.3-3.6c-0.3-1.4-0.4-2.8-0.4-4.3s0.1-2.9,0.4-4.3c0.3-1.4,0.7-2.5,1.3-3.6
		c0.6-1,1.4-1.9,2.3-2.5c1-0.6,2.1-0.9,3.5-0.9s2.5,0.3,3.5,0.9c1,0.6,1.7,1.4,2.3,2.5c0.6,1,1.1,2.2,1.3,3.6
		c0.3,1.4,0.4,2.8,0.4,4.3s-0.1,2.9-0.4,4.3C159.6,166,159.1,167.2,158.5,168.3z"/>
	<path class="st0" d="M169.4,155.7c0.5-0.5,0.8-1.2,0.8-2.1c0-0.9-0.3-1.6-0.8-2.1s-1.2-0.8-2.1-0.8c-0.9,0-1.6,0.3-2.1,0.8
		s-0.8,1.2-0.8,2.1c0,0.9,0.3,1.6,0.8,2.1s1.2,0.8,2.1,0.8S168.9,156.2,169.4,155.7z M171.9,153.6c0,1.4-0.4,2.5-1.3,3.3
		c-0.9,0.8-2,1.2-3.4,1.2s-2.5-0.4-3.4-1.2s-1.3-1.9-1.3-3.3c0-1.4,0.4-2.5,1.3-3.3c0.9-0.8,2-1.2,3.4-1.2s2.5,0.4,3.4,1.2
		S171.9,152.2,171.9,153.6z"/>
</g>
</svg>
