<?xml version="1.0" encoding="utf-8"?>
<!-- Generator: Adobe Illustrator 22.0.1, SVG Export Plug-In . SVG Version: 6.00 Build 0)  -->
<svg version="1.1" id="Layer_1" xmlns="http://www.w3.org/2000/svg" xmlns:xlink="http://www.w3.org/1999/xlink" x="0px" y="0px"
	 viewBox="0 0 181 181" style="enable-background:new 0 0 181 181;" xml:space="preserve">
<style type="text/css">
	.st0{fill:#FFFFFF;}
</style>
<path class="st0" d="M90.5,172.3c-42,0-60.8-25.2-60.8-81.8S48.5,8.8,90.5,8.8s60.8,25.2,60.8,81.8S132.5,172.3,90.5,172.3z
	 M90.5,12.3c-28.3,0-57.3,9.3-57.3,78.3s29,78.2,57.3,78.2s57.3-9.3,57.3-78.3S118.8,12.3,90.5,12.3z M85.3,160.9
	c-0.2,0-0.5,0-0.7-0.1c-0.7-0.3-1.1-0.9-1.1-1.6v-50.4l-19.7,19.8c-0.7,0.7-1.8,0.7-2.5,0l-8.3-8.3c-0.7-0.7-0.7-1.8,0-2.5
	l27.4-27.4L53,63.1c-0.7-0.7-0.7-1.8,0-2.5l8.3-8.3c0.3-0.3,0.8-0.5,1.2-0.5l0,0c0.5,0,0.9,0.2,1.2,0.5l19.8,19.8V21.7
	c0-0.7,0.4-1.3,1.1-1.6s1.4-0.1,1.9,0.4L128,61.9c0.3,0.3,0.5,0.8,0.5,1.2s-0.2,0.9-0.5,1.2l-26.1,26.1l26.1,26.1
	c0.7,0.7,0.7,1.8,0,2.5l-41.4,41.4C86.2,160.9,85.8,160.9,85.3,160.9z M85.3,102.9c0.2,0,0.5,0,0.7,0.1c0.7,0.3,1.1,0.9,1.1,1.6V155
	l37.2-37.2L98.2,91.7c-0.3-0.3-0.5-0.8-0.5-1.2s0.2-0.9,0.5-1.2l26.1-26.1L87.1,26v50.4c0,0.7-0.4,1.3-1.1,1.6
	c-0.7,0.3-1.4,0.1-1.9-0.4L62.5,55.9l-5.8,5.8l27.4,27.4c0.7,0.7,0.7,1.8,0,2.5l-27.4,27.4l5.8,5.8l21.6-21.6
	C84.4,103.1,84.9,102.9,85.3,102.9z M97,132.8c-0.2,0-0.5,0-0.7-0.1c-0.7-0.3-1.1-0.9-1.1-1.6v-26.4c0-0.7,0.4-1.3,1.1-1.6
	s1.4-0.1,1.9,0.4l13.2,13.2c0.3,0.3,0.5,0.8,0.5,1.2s-0.2,0.9-0.5,1.2l-13.2,13.2C97.9,132.6,97.4,132.8,97,132.8z M98.7,108.8v18
	l9-9L98.7,108.8z M97,78.2c-0.2,0-0.5,0-0.7-0.1c-0.7-0.3-1.1-0.9-1.1-1.6V50.1c0-0.7,0.4-1.3,1.1-1.6c0.7-0.3,1.4-0.1,1.9,0.4
	l13.2,13.2c0.3,0.3,0.5,0.8,0.5,1.2s-0.2,0.9-0.5,1.2L98.2,77.6C97.9,77.9,97.5,78.2,97,78.2z M98.7,54.2v18l9-9L98.7,54.2z"/>
</svg>
