<?xml version="1.0" encoding="utf-8"?>
<!-- Generator: Adobe Illustrator 22.0.1, SVG Export Plug-In . SVG Version: 6.00 Build 0)  -->
<svg version="1.1" id="Layer_1" xmlns="http://www.w3.org/2000/svg" xmlns:xlink="http://www.w3.org/1999/xlink" x="0px" y="0px"
	 viewBox="0 0 181 181" style="enable-background:new 0 0 181 181;" xml:space="preserve">
<style type="text/css">
	.st0{fill:#FFFFFF;}
</style>
<g>
	<g>
		<path class="st0" d="M175.6,114.6h-14.8c-2.8,0-5-2.3-5-5V71.7c0-2.8,2.3-5,5-5h14.8c2.8,0,5,2.3,5,5v37.8
			C180.6,112.3,178.3,114.6,175.6,114.6z M160.7,70.1c-0.9,0-1.5,0.7-1.5,1.5v37.8c0,0.9,0.7,1.5,1.5,1.5h14.8
			c0.9,0,1.5-0.7,1.5-1.5V71.7c0-0.9-0.7-1.5-1.5-1.5h-14.8V70.1z"/>
		<g>
			<path class="st0" d="M119.1,122.1H11.3c-1,0-1.8-0.8-1.8-1.8V53.5c0-1,0.8-1.8,1.8-1.8h107.8c1,0,1.8,0.8,1.8,1.8v66.8
				C120.8,121.3,120,122.1,119.1,122.1z M13.1,118.6h104.3V55.3H13.1V118.6z"/>
			<rect x="0.4" y="125.9" class="st0" width="129.7" height="3.5"/>
		</g>
		<path class="st0" d="M131.8,98.2l-7.6-6.3c-0.6-0.5-0.8-1.2-0.5-1.9c0.3-0.7,0.9-1.2,1.6-1.2h21l-3.7-3.1l2.2-2.7l7.4,6.2
			c0.6,0.5,0.8,1.2,0.5,1.9c-0.3,0.7-0.9,1.2-1.6,1.2h-21l3.9,3.3L131.8,98.2z"/>
	</g>
</g>
</svg>
