<?xml version="1.0" encoding="utf-8"?>
<!-- Generator: Adobe Illustrator 22.0.1, SVG Export Plug-In . SVG Version: 6.00 Build 0)  -->
<svg version="1.1" id="Layer_1" xmlns="http://www.w3.org/2000/svg" xmlns:xlink="http://www.w3.org/1999/xlink" x="0px" y="0px"
	 viewBox="0 0 181 181" style="enable-background:new 0 0 181 181;" xml:space="preserve">
<style type="text/css">
	.st0{fill:#FFFFFF;}
</style>
<g>
	<title>Layer 1</title>
	<g>
		<path class="st0" d="M90.5,163.3c-40.1,0-72.7-32.6-72.7-72.8c0-40.1,32.6-72.7,72.7-72.7c19.4,0,37.7,7.6,51.4,21.3
			s21.3,32,21.3,51.4C163.3,130.6,130.6,163.3,90.5,163.3z M90.5,21.3c-38.2,0-69.2,31.1-69.2,69.2c0,38.2,31.1,69.3,69.2,69.3
			c38.2,0,69.3-31.1,69.3-69.3c0-18.5-7.2-35.9-20.3-49C126.4,28.5,109,21.3,90.5,21.3z M90.5,146.3c-14.3,0-28.5-5.6-39.4-16.4
			C31.6,110.4,29.2,80,45.4,57.7l1.2-1.7l78.3,78.3l-1.7,1.2C113.4,142.8,101.9,146.3,90.5,146.3z M47.1,61.5
			c-13.9,20.7-11.3,48.2,6.5,66s45.2,20.4,66,6.5L47.1,61.5z M134.4,125L56.1,46.7l1.7-1.2c22.3-16.2,52.7-13.9,72.2,5.7
			c19.5,19.5,21.9,49.9,5.7,72.2L134.4,125z M61.5,47.1l72.5,72.5c13.9-20.7,11.3-48.2-6.5-66C109.6,35.8,82.2,33.2,61.5,47.1z"/>
	</g>
</g>
</svg>
