<?xml version="1.0" encoding="utf-8"?>
<!-- Generator: Adobe Illustrator 22.0.1, SVG Export Plug-In . SVG Version: 6.00 Build 0)  -->
<svg version="1.1" id="Layer_1" xmlns="http://www.w3.org/2000/svg" xmlns:xlink="http://www.w3.org/1999/xlink" x="0px" y="0px"
	 viewBox="0 0 181 181" style="enable-background:new 0 0 181 181;" xml:space="preserve">
<style type="text/css">
	.st0{fill:#FFFFFF;}
</style>
<g>
	<path class="st0" d="M91.5,155.8c-7.4,0-15.4-0.4-23.1-0.7c-23,0-42.5-19.5-42.5-42.6c-0.4-7.7-0.7-15.7-0.7-23.1
		s0.4-14.4,0.7-21.1c0-23,19.5-42.5,42.5-42.5c7.6-0.4,15.4-0.7,22.8-0.7s14.5,0.4,21.4,0.7c23,0,42.5,19.5,42.5,42.6
		c0.4,7,0.7,14.4,0.7,21.8c0,7.4-0.4,15-0.8,22.4c0,23-19.5,42.5-42.6,42.5C106,155.4,98.9,155.8,91.5,155.8z M91.3,28
		c-7.3,0-15.1,0.4-22.7,0.7h-0.1c-21.1,0-39.6,18.5-39.6,39.6v0.1c-0.4,6.7-0.7,13.6-0.7,20.9s0.4,15.3,0.7,23v0.1
		c0,21.1,18.5,39.6,39.6,39.6c7.7,0.4,15.6,0.7,23,0.7c7.3,0,14.3-0.4,21.1-0.7c21.2,0,39.7-18.5,39.7-39.6c0.4-7.4,0.7-15,0.7-22.4
		c0-7.3-0.4-14.6-0.7-21.7c0-21.2-18.5-39.7-39.6-39.7h-0.1C105.7,28.4,98.6,28,91.3,28z M68.5,25.7l0.1,1.5L68.5,25.7z"/>
	<g>
		<path class="st0" d="M125.1,116.5H125c-0.1,0-0.2,0-0.2,0l0,0c-0.3,0-0.8,0-2.4-1.1c-0.2-0.1-0.3-0.2-0.4-0.4l-0.6-0.9l-0.7-0.3
			l-1.3-0.2c-0.2,0-0.4-0.1-0.5-0.2l-1.5-0.9c-0.1-0.1-0.2-0.2-0.3-0.3l-1.1-1.3c-0.2-0.3-0.4-0.6-0.4-1v-1.5l-0.1-2.1V105l-0.3-2
			l-0.2-1.6l-1.1-1.8c-0.1-0.2-0.2-0.4-0.2-0.6l-0.1-1.3c0-0.1,0-0.1,0-0.2v-2.1l-0.3-0.6l-0.2-0.3l-0.7-0.5
			c-0.1-0.1-0.2-0.2-0.3-0.3l-0.7-0.8l0,0l-0.4,0.6c-0.1,0.1-0.2,0.3-0.4,0.4l-1.1,0.8l-0.8,0.7c-0.3,0.2-0.6,0.3-0.9,0.4h-0.9
			c-0.3,0-0.5,0-0.7-0.2l-1-0.5c-0.1-0.1-0.3-0.2-0.4-0.3l-0.9-0.9l-0.7-0.6c-0.1-0.1-0.2-0.2-0.3-0.3l-1-1.7l-1-1.1l-0.1-0.1
			l-1.1-1.5c-0.2-0.3-0.3-0.6-0.3-1l0.1-2v-2.4c0-0.3,0.1-0.5,0.2-0.8l2-3.2l0.9-1.7c0.1-0.3,0.4-0.5,0.6-0.6l1.9-1
			c0.1-0.1,0.2-0.1,0.4-0.1l2.2-0.5c0.1,0,0.2,0,0.3,0h1.6l1.5-0.3l0.3-0.2c-0.2,0.1-0.5,0.1-0.7,0l-0.9-0.2c-0.2,0-0.4-0.1-0.6-0.3
			l-1.3-0.9c-0.1-0.1-0.2-0.2-0.3-0.3l-1-1.3c-0.3-0.4-0.4-0.8-0.3-1.3l0.2-0.7c0-0.2,0.1-0.3,0.2-0.4l1.3-2l-0.1-1
			c-0.1,0-0.2-0.1-0.3-0.2l-1.8-1.1l-2.4-1.4c-0.3-0.2-0.5-0.5-0.7-0.8l-0.6-1.6c0-0.1-0.1-0.3-0.1-0.4l-0.1-2.5l-0.8-0.6l-1-0.3
			l-2.3-0.6l-2.4-0.3c-0.2,0-0.3-0.1-0.5-0.1l-2.4-1.2l-2.2-0.8c-0.6-0.2-1-0.8-1-1.5l0.2-3.3l-0.1-1.8c0-0.4,0.1-0.8,0.4-1.1
			s0.7-0.5,1.1-0.5c24,0.2,43.5,19.9,43.5,43.9c0,9.2-2.8,18-8.2,25.5C126.1,116.3,125.6,116.5,125.1,116.5z M124.3,113.1
			c0.1,0.1,0.2,0.1,0.3,0.2c4.6-6.8,7-14.6,7-22.9c0-21.8-17.3-39.9-39-40.9v0.3v0.1l-0.1,2.3l1.2,0.5c0,0,0.1,0,0.1,0.1l2.2,1.1
			l2.3,0.3c0.1,0,0.2,0,0.2,0l3.7,1c0.1,0,0.3,0.1,0.4,0.2l1.7,1.1c0.4,0.3,0.7,0.7,0.7,1.2v1.4l0.1,1.5l0.3,0.9l1.9,1.1l1.5,0.9
			h0.5c0.8,0,1.4,0.6,1.5,1.4l0.1,1.1l0.1,1.8c0,0.3-0.1,0.6-0.3,0.9l-1.3,2.1l0.4,0.5l0.9,0.6l0.7-0.4l1.3-1.7
			c0.1-0.1,0.2-0.3,0.4-0.3l1.4-0.8c0.3-0.2,0.7-0.3,1.1-0.2l1.2,0.3h0.1l1.8,0.6c0.2,0,0.3,0.1,0.4,0.2l1.6,1.2l0.7,0.4
			c0.5,0.3,0.7,0.8,0.7,1.3v1.1c0,0.1,0,0.1,0,0.2l-0.2,1.8c-0.1,0.7-0.7,1.3-1.4,1.3h-0.8c-0.3,0-0.6-0.1-0.9-0.2l-0.9-0.5
			l-1.5-0.1l-2,0.6l-0.6,0.4l-1.5,0.8c-0.1,0.1-0.3,0.1-0.4,0.2l-1.9,0.4c-0.1,0-0.2,0-0.3,0h-1.6l-1.8,0.4l-1.3,0.7l-0.7,1.4
			l-1.8,2.9V86l-0.1,1.5l0.8,1l1.1,1.2c0.1,0.1,0.1,0.1,0.2,0.2l1,1.6l1.4,1.3l0.4,0.2l0.5-0.4l0.1-0.1l0.9-0.6l0.4-0.5
			c0.1-0.1,0.2-0.2,0.3-0.3l0.7-0.6c0.3-0.2,0.6-0.4,1-0.4h1.1c0.4,0,0.8,0.2,1.1,0.5l0.7,0.7c0,0,0,0.1,0.1,0.1l0.4,0.6l0.7,0.5
			c0.1,0.1,0.3,0.2,0.4,0.4l0.4,0.6c0.1,0.1,0.1,0.2,0.1,0.3l0.5,1.1c0.1,0.2,0.1,0.4,0.1,0.7v1.3v1l0.1,0.9l0.3,0.6l0.7,1.2
			c0.1,0.2,0.2,0.4,0.2,0.6l0.2,1.9l0.3,2c0,0.1,0,0.1,0,0.2v1.3l0.1,2.1v1.1l0.6,0.7l1,0.6l1.2,0.2c0.1,0,0.2,0.1,0.3,0.1l1.3,0.6
			c0.2,0.1,0.5,0.3,0.6,0.5L124.3,113.1z M114.8,72l-1.3,1.7c-0.1,0.1-0.1,0.1-0.2,0.2h0.1l2.5-0.7c0.2,0,0.4-0.1,0.5-0.1l2.1,0.2
			c0.2,0,0.4,0.1,0.6,0.2v-0.1c0,0-0.1,0-0.1-0.1l-1.5-1.1l-2.1-0.6L114.8,72z"/>
		<path class="st0" d="M72.4,130.2c-0.2,0-0.4,0-0.6-0.1c-15.1-7.2-24.7-22-25-38.7c0-0.7,0.5-1.4,1.3-1.5l0.4-0.1h0.1l3.6-0.3
			c0.1,0,0.1,0,0.2,0l3.5,0.2l3.7-0.3c0.3,0,0.5,0,0.8,0.2l1.1,0.6c0.1,0,0.1,0.1,0.2,0.1l2.5,1.8l2,1c0.1,0,0.2,0.1,0.3,0.2
			l0.4,0.4l1.1,0.4c0.6,0.2,1,0.7,1,1.4l0.1,2.3c0,0.2,0,0.3-0.1,0.5l-0.5,1.5c0,0.1-0.1,0.2-0.1,0.3l-0.6,1l0.1,1.8l0.5,2.2
			c0,0.1,0,0.2,0,0.3l0.1,1.5l1.2,1.4l1.2,1.2l1.6,1.3c0.2,0.2,0.4,0.4,0.5,0.6l0.5,1.2l0.9,1.2c0.2,0.2,0.3,0.5,0.3,0.8l0.1,2.3
			c0,0.1,0,0.1,0,0.2l-0.2,2.9v2.4c0,0.1,0,0.3-0.1,0.4l-0.6,2.2l-0.2,1.2l0.1,2.3c0,0.5-0.2,1-0.7,1.3
			C72.9,130.1,72.6,130.2,72.4,130.2z M49.8,92.7c0.8,14.1,8.7,26.7,21,33.5v-0.1l0.2-1.4c0-0.1,0-0.1,0-0.2l0.6-2.1v-2.3l0.2-2.9
			l-0.1-1.8l-0.8-1c-0.1-0.1-0.1-0.2-0.2-0.3l-0.4-1l-1.4-1.1l-0.1-0.1l-1.3-1.3l-0.1-0.1l-1.6-1.9c-0.2-0.3-0.3-0.6-0.4-0.9
			l-0.1-1.9l-0.5-2.2c0-0.1,0-0.2,0-0.3l-0.1-2.4c0-0.3,0.1-0.6,0.2-0.8l0.7-1.2l0.3-1.1v-1.1l-0.4-0.1c-0.2-0.1-0.3-0.1-0.4-0.2
			l-0.7-0.6l-2-1c-0.1,0-0.2-0.1-0.2-0.1l-2.5-1.8l-0.6-0.3l-3.4,0.3c-0.1,0-0.1,0-0.2,0L52,92.7L49.8,92.7z"/>
		<path class="st0" d="M76.2,131.8c-0.2,0-0.3,0-0.5-0.1c-1.4-0.5-2.7-1.1-4-1.7c-0.5-0.2-0.8-0.7-0.9-1.3l-0.1-2.4
			c0-0.1,0-0.2,0-0.2l0.2-1.4c0-0.1,0-0.1,0-0.2l0.6-2.1v-2.3l0.2-2.9l-0.1-1.8l-0.8-1c-0.1-0.1-0.1-0.2-0.2-0.3l-0.4-1l-1.4-1.1
			l-0.1-0.1l-1.3-1.3l-0.1-0.1l-1.6-1.9c-0.2-0.3-0.3-0.6-0.4-0.9l-0.1-1.9l-0.5-2.2c0-0.1,0-0.2,0-0.3l-0.1-2.4
			c0-0.3,0.1-0.6,0.2-0.8l0.7-1.2l0.3-1.1v-1.1l-0.4-0.1c-0.2-0.1-0.3-0.1-0.4-0.2l-0.7-0.6l-2-1c-0.1,0-0.2-0.1-0.2-0.1L59.6,93
			L59,92.7L55.6,93c-0.1,0-0.1,0-0.2,0l-3.5-0.2l-3.7,0.3c-0.4,0.1-0.9-0.1-1.2-0.3c-0.3-0.3-0.5-0.7-0.5-1.1c0-0.3,0-0.6,0-1
			c0-19.2,12.3-36,30.6-41.9c0.5-0.1,1-0.1,1.4,0.2l1.7,1.3c0.1,0.1,0.2,0.1,0.2,0.2l1.8,2.1c0.2,0.2,0.3,0.5,0.4,0.8l0.1,1
			c0,0.4-0.1,0.9-0.4,1.2L81,56.9c-0.2,0.2-0.4,0.3-0.6,0.4l-1.5,0.5l-0.7,0.5v5.2l0.3,1.3c0.1,0.3,0.1,0.6-0.1,0.9l-0.7,1.6
			L76.9,69c-0.1,0.2-0.2,0.4-0.4,0.5l-1.3,1.1c-0.3,0.2-0.6,0.4-1,0.4h-1.3c-0.4,0-0.7-0.1-1-0.4l-1.3,1.3l-2,1.9l0.2,2.3
			c0,0.2,0,0.5-0.1,0.7l-1,2.2L67,81.6c-0.1,0.5-0.4,0.8-0.9,1l-1.3,0.6c-0.3,0.1-0.7,0.2-1.1,0l-1.4-0.5c-0.1,0-0.1-0.1-0.2-0.1
			l-1-0.5l-0.2,0.1l-1.4,1.3l-0.2,0.3l0.3,1.5l0.3,0.2l2.2,0.5c0.4,0.1,0.7,0.3,0.9,0.6l0.9,1.2l2.1,2l1.6,1.2l1.2,0.2l0.7-0.3
			l1.5-1c0.3-0.2,0.6-0.3,0.9-0.2l2.7,0.2c0.2,0,0.4,0.1,0.6,0.2l2.1,1.1c0.1,0.1,0.2,0.2,0.3,0.3l1.6,1.6l0.1,0.1l1.8,2.1l1.5,1.9
			l0.9,0.9l0.1,0.1l1.3,1.5l2.8,0.5c0.1,0,0.1,0,0.2,0l1.6,0.5c0.1,0,0.2,0.1,0.2,0.1l1.5,0.8l1.2,0.2c0.2,0,0.4,0.1,0.6,0.3
			l1.5,1.1c0.4,0.3,0.6,0.7,0.6,1.2v3.6c0,0.5-0.3,1-0.7,1.3l-1.5,1l-0.8,1.2l-1.2,3.4l-0.4,1.5c-0.1,0.3-0.3,0.6-0.5,0.8l-0.8,0.6
			l-1.2,1.8l-1.4,2.2c-0.1,0.1-0.2,0.2-0.3,0.3l-2.2,2l-1.9,2.1c-0.1,0.1-0.2,0.2-0.4,0.3l-1.7,0.9l-2.1,2l-0.9,0.9v0.1
			c0.1,0.5-0.1,1.1-0.5,1.5C76.9,131.7,76.6,131.8,76.2,131.8z M73.8,127.7c0.4,0.2,0.8,0.4,1.2,0.5l1.4-1.4l2.3-2.2
			c0.1-0.1,0.2-0.2,0.3-0.2l1.7-0.9l1.8-2l0.1-0.1l2.1-1.9l1.3-2.1l1.3-2c0.1-0.1,0.2-0.2,0.3-0.3l0.5-0.4l0.3-1.1
			c0-0.1,0-0.1,0.1-0.2l1.3-3.6c0-0.1,0.1-0.3,0.2-0.4l1.1-1.6c0.1-0.2,0.3-0.3,0.4-0.4l1.1-0.7v-2l-0.6-0.5l-1.1-0.2
			c-0.1,0-0.3-0.1-0.4-0.1l-1.6-0.8l-1.4-0.4l-3.3-0.5c-0.3-0.1-0.6-0.2-0.9-0.5l-1.6-1.8l-1-0.9c-0.1-0.1-0.1-0.1-0.2-0.2l-1.6-2
			l-1.7-2l-1.4-1.4l-1.6-0.9l-1.9-0.1L71,93.3c-0.1,0.1-0.2,0.1-0.3,0.2l-1.2,0.5C69.3,94,69,94,68.7,94l-1.4-0.2l0.4,0.1
			c0.6,0.2,1,0.7,1,1.4l0.1,2.3c0,0.2,0,0.3-0.1,0.5l-0.5,1.5c0,0.1-0.1,0.2-0.1,0.3l-0.6,1l0.1,1.8l0.5,2.2c0,0.1,0,0.2,0,0.3
			l0.1,1.5l1.2,1.4l1.2,1.2l1.6,1.3c0.2,0.2,0.4,0.4,0.5,0.6l0.5,1.2l0.9,1.2c0.2,0.2,0.3,0.5,0.3,0.8l0.1,2.3c0,0.1,0,0.1,0,0.2
			l-0.2,2.9v2.4c0,0.1,0,0.3-0.1,0.4l-0.6,2.2l-0.2,1.2L73.8,127.7z M64,92l1,0.5L64.4,92l-0.1-0.1l-2.2-2.1
			c-0.1-0.1-0.1-0.1-0.2-0.2l-0.7-0.9l-1.9-0.4c-0.1,0-0.3-0.1-0.4-0.2l-1.1-0.6c-0.4-0.2-0.7-0.6-0.7-1l-0.5-2.8
			c-0.1-0.4,0-0.8,0.2-1.1l0.6-1c0.1-0.1,0.2-0.2,0.2-0.3l1.8-1.6c0.1-0.1,0.3-0.2,0.5-0.3L61,79c0.4-0.1,0.8-0.1,1.2,0.1l1.5,0.8
			l0.8,0.3h0.1l0.1-0.4l0.5-1.7c0-0.1,0-0.1,0.1-0.2l0.9-2L66,73.3c0-0.4,0.1-0.9,0.5-1.2l2.5-2.3l1.9-2c0.2-0.2,0.5-0.4,0.8-0.4
			l1.1-0.2c0.6-0.1,1.2,0.1,1.6,0.6l0.5-0.4l1.1-2.5l-0.3-1c0-0.1,0-0.2,0-0.4v-6.2c0-0.5,0.2-1,0.7-1.2l1.5-1
			c0.1-0.1,0.2-0.1,0.4-0.2l1.3-0.4l0.5-0.5l-1.3-1.5l-1-0.7c-16.4,5.6-27.5,20.7-27.8,38l2.3-0.2c0.1,0,0.1,0,0.2,0l3.5,0.2
			l3.7-0.3c0.3,0,0.5,0,0.8,0.2l1.1,0.6c0.1,0,0.1,0.1,0.2,0.1L64,92z"/>
		<path class="st0" d="M90.6,134.3c-5.1,0-10.1-0.9-14.9-2.6c-0.5-0.2-0.8-0.6-1-1.1l-0.2-0.9c-0.1-0.5,0-1,0.4-1.4l1.5-1.6l2.3-2.2
			c0.1-0.1,0.2-0.2,0.3-0.2l1.7-0.9l1.8-2l0.1-0.1l2.1-1.9l1.3-2.1l1.3-2c0.1-0.1,0.2-0.2,0.3-0.3l0.5-0.4l0.3-1.1
			c0-0.1,0-0.1,0.1-0.2l1.3-3.6c0-0.1,0.1-0.3,0.2-0.4l1.1-1.6c0.1-0.2,0.3-0.3,0.4-0.4l1.1-0.7v-2l-0.6-0.5l-1.1-0.2
			c-0.1,0-0.3-0.1-0.4-0.1l-1.6-0.8l-1.4-0.4l-3.3-0.5c-0.3-0.1-0.6-0.2-0.9-0.5l-1.6-1.8l-1-0.9c-0.1-0.1-0.1-0.1-0.2-0.2l-1.6-2
			l-1.7-2l-1.4-1.4l-1.6-0.9l-1.9-0.1L71,93.1c-0.1,0.1-0.2,0.1-0.3,0.2l-1.2,0.5c-0.2,0.1-0.5,0.1-0.8,0.1l-2-0.3
			c-0.3,0-0.5-0.1-0.7-0.3l-2-1.5l-0.1-0.1l-2.2-2.1c-0.1-0.1-0.1-0.1-0.2-0.2l-0.7-0.9l-1.9-0.4c-0.1,0-0.3-0.1-0.4-0.2l-1.1-0.6
			c-0.4-0.2-0.7-0.6-0.7-1l-0.5-2.8c-0.1-0.4,0-0.8,0.2-1.1l0.6-1c0.1-0.1,0.2-0.2,0.2-0.3l1.8-1.6c0.1-0.1,0.3-0.2,0.5-0.3l1.1-0.4
			c0.4-0.2,0.8-0.1,1.2,0.1l1.5,0.8l0.8,0.3h0.1l0.1-0.4l0.5-1.7c0-0.1,0-0.1,0.1-0.2l0.9-2l-0.2-2.6c0-0.4,0.1-0.9,0.5-1.2l2.5-2.3
			l1.9-2c0.2-0.2,0.5-0.4,0.8-0.4l1.1-0.2c0.6-0.1,1.2,0.1,1.6,0.6l0.5-0.4l1.1-2.5l-0.3-1c0-0.1,0-0.2,0-0.4v-6.2
			c0-0.5,0.2-1,0.7-1.2l1.5-1c0.1-0.1,0.2-0.1,0.4-0.2l1.3-0.4l0.5-0.5l-1.3-1.5l-1.6-1.2c-0.4-0.3-0.7-0.9-0.6-1.4s0.5-1,1-1.2
			c4.3-1.4,8.8-2.1,13.3-2.1h0.4c0.8,0,1.5,0.6,1.5,1.4l0.1,1.9v0.1l-0.1,2.3l1.2,0.5c0,0,0.1,0,0.1,0.1l2.2,1.1l2.3,0.3
			c0.1,0,0.2,0,0.2,0l3.7,1c0.1,0,0.3,0.1,0.4,0.2l1.7,1.1c0.4,0.3,0.7,0.7,0.7,1.2v1.4l0.1,1.5l0.3,0.9l1.9,1.1l1.5,0.9h0.5
			c0.8,0,1.4,0.6,1.5,1.4l0.1,1.1l0.1,1.8c0,0.3-0.1,0.6-0.3,0.9l-1.3,2.1l0.4,0.5l0.9,0.6l0.7-0.4l1.3-1.7c0.1-0.1,0.2-0.3,0.4-0.3
			l1.4-0.8c0.3-0.2,0.7-0.3,1.1-0.2l1.2,0.3h0.1l1.8,0.6c0.2,0,0.3,0.1,0.4,0.2l1.6,1.2l0.7,0.4c0.5,0.3,0.7,0.8,0.7,1.3v1.1
			c0,0.1,0,0.1,0,0.2l-0.2,1.8c-0.1,0.7-0.7,1.3-1.4,1.3h-0.8c-0.3,0-0.6-0.1-0.9-0.2l-0.9-0.5l-1.5-0.1l-2,0.6l-0.6,0.4l-1.5,0.8
			c-0.1,0.1-0.3,0.1-0.4,0.2l-1.9,0.4c-0.1,0-0.2,0-0.3,0H108l-1.8,0.4l-1.3,0.7l-0.7,1.4l-1.8,2.9V86l-0.1,1.5l0.8,1l1.1,1.2
			c0.1,0.1,0.1,0.1,0.2,0.2l1,1.6l1.4,1.3l0.4,0.2l0.5-0.4l0.1-0.1l0.9-0.6l0.4-0.5c0.1-0.1,0.2-0.2,0.3-0.3l0.7-0.6
			c0.3-0.2,0.6-0.4,1-0.4h1.1c0.4,0,0.8,0.2,1.1,0.5l0.7,0.7c0,0,0,0.1,0.1,0.1l0.4,0.6l0.7,0.5c0.1,0.1,0.3,0.2,0.4,0.4l0.4,0.6
			c0.1,0.1,0.1,0.2,0.1,0.3l0.5,1.1c0.1,0.2,0.1,0.4,0.1,0.7v1.3v1l0.1,0.9l0.3,0.6l0.7,1.2c0.1,0.2,0.2,0.4,0.2,0.6l0.2,1.9l0.3,2
			c0,0.1,0,0.1,0,0.2v1.3l0.1,2.1v1.1l0.6,0.7l1,0.6l1.2,0.2c0.1,0,0.2,0.1,0.3,0.1l1.3,0.6c0.2,0.1,0.5,0.3,0.6,0.5l0.7,1
			c0.3,0.2,0.6,0.4,0.8,0.5c0.1,0,0.1,0,0.2,0c0.5,0,1,0.4,1.2,0.9s0.2,1.1-0.1,1.5C118.1,127.4,104.8,134.3,90.6,134.3z
			 M78.1,129.4c4,1.3,8.2,1.9,12.5,1.9c12.5,0,24.4-5.8,32.2-15.6c-0.1-0.1-0.3-0.2-0.4-0.3c-0.2-0.1-0.3-0.2-0.4-0.4l-0.6-0.9
			l-0.7-0.3l-1.3-0.2c-0.2,0-0.4-0.1-0.5-0.2l-1.5-0.9c-0.1-0.1-0.2-0.2-0.3-0.3l-1.1-1.3c-0.2-0.3-0.4-0.6-0.4-1v-1.5l-0.1-2.1V105
			l-0.3-2l-0.2-1.6l-1.1-1.8c-0.1-0.2-0.2-0.4-0.2-0.6l-0.1-1.3c0-0.1,0-0.1,0-0.2v-2.1l-0.3-0.6l-0.2-0.3l-0.7-0.5
			c-0.1-0.1-0.2-0.2-0.3-0.3l-0.7-0.8l0,0l-0.4,0.6c-0.1,0.1-0.2,0.3-0.4,0.4l-1.1,0.8l-0.8,0.7c-0.3,0.2-0.6,0.3-0.9,0.4h-0.9
			c-0.3,0-0.5,0-0.7-0.2l-1-0.5c-0.1-0.1-0.3-0.2-0.4-0.3l-0.9-0.9l-0.7-0.6c-0.1-0.1-0.2-0.2-0.3-0.3l-1-1.7l-1-1.1l-0.1-0.1
			l-1.1-1.5c-0.2-0.3-0.3-0.6-0.3-1l0.1-2v-2.4c0-0.3,0.1-0.5,0.2-0.8l2-3.2l0.9-1.7c0.1-0.3,0.4-0.5,0.6-0.6l1.9-1
			c0.1-0.1,0.2-0.1,0.4-0.1l2.2-0.5c0.1,0,0.2,0,0.3,0h1.6l1.5-0.3l0.3-0.2c-0.2,0.1-0.5,0.1-0.7,0l-0.9-0.2c-0.2,0-0.4-0.1-0.6-0.3
			l-1.3-0.9c-0.1-0.1-0.2-0.2-0.3-0.3l-1-1.3c-0.3-0.4-0.4-0.8-0.3-1.3l0.2-0.7c0-0.2,0.1-0.3,0.2-0.4l1.3-2l-0.1-1
			c-0.1,0-0.2-0.1-0.3-0.2l-1.8-1.1l-2.4-1.4c-0.3-0.2-0.5-0.5-0.7-0.8l-0.6-1.6c0-0.1-0.1-0.3-0.1-0.4l-0.1-2.5l-0.8-0.6l-1-0.3
			l-2.3-0.6l-2.4-0.3c-0.2,0-0.3-0.1-0.5-0.1l-2.4-1.2l-2.2-0.8c-0.6-0.2-1-0.8-1-1.5l0.2-3.3v-0.4c-2.9,0.1-5.8,0.5-8.6,1.1
			l1.5,1.7c0.2,0.2,0.3,0.5,0.4,0.8l0.1,1c0,0.4-0.1,0.9-0.4,1.2l-1.3,1.3c-0.2,0.2-0.4,0.3-0.6,0.4l-1.5,0.5l-0.7,0.5V63l0.3,1.3
			c0.1,0.3,0.1,0.6-0.1,0.9l-0.7,1.6l-0.8,1.7c-0.1,0.2-0.2,0.4-0.4,0.5l-1.3,1.1c-0.3,0.2-0.6,0.4-1,0.4h-1.3c-0.4,0-0.7-0.1-1-0.4
			l-1.3,1.3l-2,1.9l0.2,2.3c0,0.2,0,0.5-0.1,0.7l-1,2.2l-0.7,2.6c-0.1,0.5-0.4,0.8-0.9,1L65,82.7c-0.3,0.1-0.7,0.2-1.1,0l-1.4-0.5
			c-0.1,0-0.1-0.1-0.2-0.1l-1-0.5l-0.2,0.1L59.7,83l-0.2,0.3l0.3,1.5l0.3,0.2l2.2,0.5c0.4,0.1,0.7,0.3,0.9,0.6l0.9,1.2l2.1,2
			l1.6,1.2l1.2,0.2l0.7-0.3l1.5-1c0.3-0.2,0.6-0.3,0.9-0.2l2.7,0.2c0.2,0,0.4,0.1,0.6,0.2l2.1,1.1c0.1,0.1,0.2,0.2,0.3,0.3l1.6,1.6
			l0.1,0.1l1.8,2.1l1.5,1.9l0.9,0.9l0.1,0.1l1.3,1.5l2.8,0.5c0.1,0,0.1,0,0.2,0l1.6,0.5c0.1,0,0.2,0.1,0.2,0.1l1.5,0.8l1.2,0.2
			c0.2,0,0.4,0.1,0.6,0.3l1.5,1.1c0.4,0.3,0.6,0.7,0.6,1.2v3.6c0,0.5-0.3,1-0.7,1.3l-1.5,1l-0.8,1.2l-1.2,3.4l-0.4,1.5
			c-0.1,0.3-0.3,0.6-0.5,0.8l-0.8,0.6l-1.2,1.8l-1.4,2.2c-0.1,0.1-0.2,0.2-0.3,0.3l-2.2,2l-1.9,2.1c-0.1,0.1-0.2,0.2-0.4,0.3
			l-1.7,0.9L78.1,129.4z M124.8,113.5L124.8,113.5L124.8,113.5z M114.8,72l-1.3,1.7c-0.1,0.1-0.1,0.1-0.2,0.2h0.1l2.5-0.7
			c0.2,0,0.4-0.1,0.5-0.1l2.1,0.2c0.2,0,0.4,0.1,0.6,0.2v-0.1c0,0-0.1,0-0.1-0.1l-1.5-1.1l-2.1-0.6L114.8,72z"/>
	</g>
</g>
<g>
	<path class="st0" d="M138.8,173.6c0.8,0.7,1.6,1.2,2.6,1.6c0.9,0.4,2,0.6,3,0.6c0.8,0,1.5-0.1,2.1-0.3c0.7-0.2,1.2-0.5,1.7-0.9
		s0.9-0.9,1.1-1.6c0.3-0.6,0.4-1.4,0.4-2.2c0-0.9-0.1-1.7-0.4-2.3c-0.3-0.6-0.7-1.2-1.2-1.6s-1.1-0.7-1.7-0.9
		c-0.6-0.2-1.3-0.3-2-0.3c-0.7,0-1.5,0.1-2.3,0.3c-0.8,0.2-1.5,0.5-2.3,1l-1-0.7l0.4-10.9h11v1.7H141l-0.3,7.9
		c0.6-0.3,1.2-0.6,1.9-0.8c0.7-0.2,1.4-0.3,2.1-0.3c0.9,0,1.8,0.1,2.6,0.4c0.8,0.3,1.5,0.7,2.2,1.3c0.6,0.6,1.1,1.3,1.5,2.1
		c0.4,0.8,0.6,1.8,0.6,2.9c0,1.1-0.2,2-0.5,2.9c-0.4,0.8-0.9,1.6-1.5,2.2c-0.7,0.6-1.4,1.1-2.3,1.4s-1.9,0.5-3,0.5
		c-2.5,0-4.7-0.8-6.6-2.5L138.8,173.6z"/>
	<path class="st0" d="M158.5,177.1c-0.3,0.3-0.6,0.4-1.1,0.4c-0.4,0-0.8-0.1-1.1-0.4c-0.3-0.3-0.4-0.6-0.4-1s0.1-0.8,0.4-1
		c0.3-0.3,0.6-0.4,1.1-0.4s0.8,0.1,1.1,0.4c0.3,0.3,0.4,0.6,0.4,1C158.9,176.6,158.8,177,158.5,177.1z"/>
	<path class="st0" d="M174.8,177.3h-1.9V172h-10.7l-0.1-1.2l10.5-15.4h2.1v14.9h2.6v1.7h-2.6v5.3H174.8z M172.8,170.4v-12.5
		l-8.5,12.5H172.8z"/>
</g>
</svg>
