<?xml version="1.0" encoding="utf-8"?>
<!-- Generator: Adobe Illustrator 22.0.1, SVG Export Plug-In . SVG Version: 6.00 Build 0)  -->
<svg version="1.1" id="Layer_1" xmlns="http://www.w3.org/2000/svg" xmlns:xlink="http://www.w3.org/1999/xlink" x="0px" y="0px"
	 viewBox="0 0 181 181" style="enable-background:new 0 0 181 181;" xml:space="preserve">
<style type="text/css">
	.st0{fill:#FFFFFF;}
</style>
<path class="st0" d="M163.9,89.3c-0.3-0.4-33.2-36.6-73.4-36.6c-40.1,0-73.1,36.3-73.4,36.6c-0.6,0.7-0.6,1.8,0,2.5
	c0.3,0.4,33.3,36.6,73.4,36.6c40.2,0,73.1-36.3,73.4-36.6C164.5,90.9,164.5,89.9,163.9,89.3z M90.5,124.6
	c-34.3,0-63.3-27.8-69.4-34.1c6.1-6.3,35.2-34.1,69.4-34.1s63.3,27.8,69.4,34.1C153.8,96.8,124.8,124.6,90.5,124.6z"/>
<path class="st0" d="M90.5,52.6c-20.9,0-37.9,17-37.9,37.9s17,37.9,37.9,37.9s37.9-17,37.9-37.9S111.4,52.6,90.5,52.6z M90.5,124.6
	c-18.8,0-34.1-15.3-34.1-34.1s15.3-34.1,34.1-34.1s34.1,15.3,34.1,34.1S109.3,124.6,90.5,124.6z"/>
<polygon class="st0" points="146.4,32 32.3,146.1 32,146.4 34.6,149 148.8,34.9 149,34.6 "/>
</svg>
