<svg xmlns="http://www.w3.org/2000/svg" baseProfile="full" width="368.207" height="100" viewBox="0 0 368.21 100"><path fill="#FFF" fill-rule="evenodd" d="M240.899 24.857l-.276-15.97h5.039v20.14h-7.245l-5.028-16.525h-.113l.282 16.525h-5V8.887h7.551l4.68 15.97h.11zm-91.56-14.09l-2.785 18.47h-5.498l3.77-20.348h9.057l3.749 20.347h-5.464l-2.715-18.47h-.114zm23.719 13.68l2.515-15.559h8.295l.452 20.347h-5.093l-.132-18.297-.11.005-3.399 18.293h-5.159l-3.402-18.298h-.114l-.129 18.297h-5.087l.451-20.347h8.297l2.504 15.558h.111zm-40.566-.956c.2.492.134 1.126.04 1.51-.166.664-.624 1.356-1.98 1.356-1.271 0-2.047-.727-2.047-1.835l-.004-1.976h-5.457v1.574c0 4.537 3.573 5.902 7.393 5.902 3.687 0 6.709-1.25 7.196-4.644.249-1.76.065-2.913-.02-3.343-.863-4.263-8.583-5.525-9.16-7.914a2.582 2.582 0 0 1-.023-1.063c.147-.654.589-1.367 1.86-1.367 1.194 0 1.891.735 1.891 1.842v1.255h5.079v-1.423c0-4.434-3.981-5.126-6.862-5.126-3.618 0-6.57 1.199-7.114 4.52-.146.896-.167 1.71.051 2.738.881 4.158 8.109 5.363 9.157 7.994zm66.157-.04c.19.488.133 1.113.039 1.496-.164.67-.621 1.34-1.964 1.34-1.263 0-2.025-.714-2.025-1.816l-.002-1.956h-5.405l-.003 1.555c0 4.497 3.538 5.842 7.326 5.842 3.644 0 6.64-1.232 7.117-4.594.248-1.74.065-2.882-.02-3.314-.853-4.216-8.498-5.468-9.062-7.832a2.559 2.559 0 0 1-.026-1.046c.145-.65.58-1.356 1.841-1.356 1.181 0 1.872.727 1.872 1.815v1.247h5.028v-1.404c0-4.39-3.944-5.073-6.79-5.073-3.584 0-6.51 1.171-7.044 4.467-.149.89-.171 1.697.045 2.713.875 4.12 8.033 5.314 9.073 7.916zm17.078 2.726c1.413 0 1.852-.96 1.953-1.466.044-.22.051-.516.049-.778V8.885h5.159v14.583c.004.376-.035 1.142-.056 1.344-.355 3.794-3.363 5.02-7.105 5.02-3.74 0-6.746-1.226-7.098-5.02a19.135 19.135 0 0 1-.048-1.344V8.885h5.144v15.048c-.004.262.006.558.049.778.102.506.541 1.466 1.953 1.466zm42.451-.207c1.47 0 1.986-.928 2.081-1.47.038-.232.053-.517.046-.776v-2.95h-2.083v-2.976h7.2v5.46c-.003.381-.008.664-.064 1.343-.339 3.702-3.557 5.027-7.16 5.027-3.606 0-6.821-1.325-7.155-5.027a14.227 14.227 0 0 1-.071-1.343l.002-8.56c0-.367.044-1.006.087-1.333.451-3.817 3.531-5.029 7.139-5.029 3.606 0 6.77 1.202 7.145 5.03.059.633.038 1.331.04 1.331v.677h-5.126V14.23s-.005-.483-.067-.766c-.092-.447-.477-1.481-2.034-1.481-1.476 0-1.913.979-2.026 1.481-.059.258-.082.62-.082.953v9.306c-.003.259.01.544.046.775.098.543.61 1.47 2.082 1.47zM116.854 44.047h8.877v47.647h-8.877V44.047zm14.81 9.463h8.748v5.217c1.26-1.595 2.859-2.873 4.798-3.837 1.934-.964 4.143-1.447 6.624-1.447 4.744 0 8.457 1.411 11.127 4.232 2.679 2.817 4.017 6.746 4.017 11.787v22.232h-8.939V70.458c0-2.892-.723-5.177-2.157-6.858-1.435-1.679-3.592-2.518-6.46-2.518-2.529 0-4.648.87-6.37 2.614-1.715 1.745-2.575 4.251-2.575 7.527v20.471h-8.813V53.51zm37.401 0h6.529v-5.808l8.875-6.071V53.51h7.767v7.899h-7.767v14.295c0 1.654.086 2.992.26 4.012.177 1.023.538 1.806 1.079 2.351.542.544 1.328.903 2.349 1.078 1.025.173 2.384.26 4.079.26v8.29h-1.238c-2.959 0-5.428-.26-7.41-.783-1.981-.524-3.554-1.404-4.733-2.644-1.173-1.24-2.012-2.873-2.512-4.894-.499-2.025-.749-4.56-.749-7.608V61.41h-6.529v-7.9zm44.716 7.702c-2.65 0-4.951.588-6.884 1.758-1.94 1.174-3.299 2.72-4.081 4.638h21.673c-.653-2.096-1.917-3.686-3.786-4.77-1.871-1.083-4.182-1.626-6.922-1.626zm.329 30.55c-3.002 0-5.747-.495-8.227-1.48-2.476-.986-4.601-2.338-6.364-4.059-1.759-1.718-3.129-3.742-4.111-6.072-.978-2.326-1.467-4.811-1.467-7.454 0-2.683.51-5.201 1.534-7.551 1.022-2.348 2.423-4.383 4.209-6.101 1.783-1.72 3.883-3.084 6.3-4.09 2.416-1.007 5.013-1.51 7.797-1.51 2.831 0 5.45.458 7.867 1.377 2.417.917 4.494 2.201 6.236 3.854a17.878 17.878 0 0 1 4.08 5.845c.977 2.244 1.466 4.691 1.466 7.345v3.12h-31.07c.61 2.698 1.933 4.874 3.979 6.525 2.046 1.655 4.638 2.481 7.771 2.481 2.481 0 4.632-.609 6.46-1.828 1.827-1.218 3.197-2.848 4.112-4.894l7.245 4.178c-1.654 3.088-3.968 5.58-6.949 7.474-2.985 1.89-6.602 2.84-10.868 2.84zm23.234-38.252h8.75v5.68c1.784-3.786 5.045-5.68 9.789-5.68 1.391 0 2.645.155 3.755.458 1.106.304 2.098.695 2.97 1.172l-3.331 8.356a9.815 9.815 0 0 0-2.188-1.076c-.803-.284-1.839-.424-3.098-.424-2.569 0-4.515.728-5.842 2.186-1.329 1.458-1.992 3.84-1.992 7.146v20.366h-8.813V53.51zm28.133 0h8.748v5.217c1.259-1.595 2.857-2.873 4.796-3.837 1.933-.964 4.144-1.447 6.625-1.447 4.743 0 8.457 1.411 11.128 4.232 2.677 2.817 4.015 6.746 4.015 11.787v22.232h-8.939V70.458c0-2.892-.722-5.177-2.157-6.858-1.433-1.679-3.59-2.518-6.459-2.518-2.528 0-4.649.87-6.37 2.614-1.715 1.745-2.576 4.251-2.576 7.527v20.471h-8.811V53.51zm59.003 7.702c-2.649 0-4.95.588-6.883 1.758-1.94 1.174-3.3 2.72-4.081 4.638h21.673c-.653-2.096-1.917-3.686-3.788-4.77-1.869-1.083-4.18-1.626-6.921-1.626zm.33 30.55c-3.002 0-5.748-.495-8.228-1.48-2.475-.986-4.6-2.338-6.363-4.059-1.759-1.718-3.13-3.742-4.111-6.072-.979-2.326-1.467-4.811-1.467-7.454 0-2.683.51-5.201 1.534-7.551 1.02-2.348 2.423-4.383 4.208-6.101 1.784-1.72 3.882-3.084 6.301-4.09 2.416-1.007 5.013-1.51 7.796-1.51 2.832 0 5.45.458 7.868 1.377 2.417.917 4.494 2.201 6.236 3.854a17.86 17.86 0 0 1 4.079 5.845c.978 2.244 1.467 4.691 1.467 7.345v3.12h-31.07c.61 2.698 1.933 4.874 3.979 6.525 2.046 1.655 4.638 2.481 7.771 2.481 2.48 0 4.632-.609 6.46-1.828 1.827-1.218 3.196-2.848 4.11-4.894l7.246 4.178c-1.653 3.088-3.968 5.58-6.948 7.474-2.986 1.89-6.602 2.84-10.868 2.84zm20.228-38.252h6.528v-5.808l8.876-6.071V53.51h7.765v7.899h-7.765v14.295c0 1.654.085 2.992.26 4.012.175 1.023.536 1.806 1.079 2.351.542.544 1.327.903 2.348 1.078 1.025.173 2.385.26 4.078.26v8.29h-1.237c-2.958 0-5.429-.26-7.41-.783-1.982-.524-3.555-1.404-4.733-2.644-1.174-1.24-2.013-2.873-2.513-4.894-.499-2.025-.748-4.56-.748-7.608V61.41h-6.528v-7.9z"/><path fill="#706CF5" d="M58.074 0c24.757 0 41.58 16.822 41.58 41.58v16.84l-.032 1.862C98.797 84.017 82.206 100 58.073 100H41.58C16.822 100 0 83.719 0 58.962V41.038C0 17.02 15.833.98 39.383.043L41.58 0h16.495z"/><path fill="#FFF" fill-rule="evenodd" d="M64.27 71.877a26.09 26.09 0 0 1-14.445 4.336c-10.277 0-19.172-5.913-23.469-14.523a59.33 59.33 0 0 1-5.935-3.559c3.558 12.897 15.375 22.37 29.404 22.37 8.33 0 15.88-3.34 21.385-8.754-2.15.18-4.476.224-6.94.13zM24.177 55.442a48.015 48.015 0 0 1-4.779-3.316c-5.25-4.17-7.947-8.53-6.94-12.232 1.005-3.691 5.518-6.08 12.126-7.02C30.072 24.803 39.33 19.5 49.825 19.5c16.175 0 29.409 12.59 30.436 28.506 5.247 4.17 7.944 8.529 6.936 12.23-1.01 3.71-5.564 6.104-12.23 7.034-1.792.25-3.737.395-5.807.43-6.749.116-14.822-.924-23.255-3.22-8.457-2.301-15.962-5.508-21.727-9.04zm48.365 7.645a26.089 26.089 0 0 0 3.495-12.923V50c0-14.477-11.736-26.213-26.212-26.213-9.625 0-18.039 5.188-22.597 12.92a26.09 26.09 0 0 0-3.616 13.272c5.46 3.655 13.713 7.258 23.259 9.857 9.853 2.681 19.06 3.742 25.671 3.25zm5.238-.873c2.63-.771 4.324-1.992 4.775-3.65.46-1.686-.421-3.635-2.366-5.671l-.041.404a30.3 30.3 0 0 1-2.368 8.917zM22.107 37.258l.22-.469c-3.1.763-5.08 2.053-5.574 3.865-.488 1.793.538 3.883 2.747 6.058a30.297 30.297 0 0 1 2.607-9.454z"/></svg>