<?xml version="1.0" encoding="utf-8"?>
<!-- Generator: Adobe Illustrator 22.0.1, SVG Export Plug-In . SVG Version: 6.00 Build 0)  -->
<svg version="1.1" id="Layer_1" xmlns="http://www.w3.org/2000/svg" xmlns:xlink="http://www.w3.org/1999/xlink" x="0px" y="0px"
	 viewBox="0 0 181 181" style="enable-background:new 0 0 181 181;" xml:space="preserve">
<style type="text/css">
	.st0{fill:#FFFFFF;}
</style>
<path class="st0" d="M53.5,54.8H7.4c-1,0-1.8-0.8-1.8-1.8V6.9c0-1,0.8-1.8,1.8-1.8h46.1c1,0,1.8,0.8,1.8,1.8V53
	C55.3,54,54.5,54.8,53.5,54.8z M9.2,51.3h42.6V8.7H9.2V51.3z"/>
<path class="st0" d="M174.3,54.8h-46.1c-1,0-1.8-0.8-1.8-1.8V6.9c0-1,0.8-1.8,1.8-1.8h46.1c1,0,1.8,0.8,1.8,1.8V53
	C176.1,54,175.3,54.8,174.3,54.8z M129.9,51.3h42.6V8.7h-42.6V51.3z"/>
<path class="st0" d="M52.8,175.9H6.7c-1,0-1.8-0.8-1.8-1.8V128c0-1,0.8-1.8,1.8-1.8h46.1c1,0,1.8,0.8,1.8,1.8v46.1
	C54.6,175.1,53.8,175.9,52.8,175.9z M8.4,172.4H51v-42.6H8.4V172.4z"/>
<rect x="20.1" y="21" class="st0" width="19.3" height="19.3"/>
<rect x="142.3" y="19.6" class="st0" width="19.3" height="19.3"/>
<rect x="20.4" y="140.7" class="st0" width="19.3" height="19.3"/>
<g>
	<path class="st0" d="M139.4,174.9c-1.5-1.2-2.8-2.5-4-3.9c-1.2-1.4-2.2-2.8-3.2-4.3c-0.7,0.2-1.4,0.3-2.1,0.5
		c-0.7,0.1-1.5,0.2-2.2,0.2c-2.3,0-4.4-0.4-6.2-1.3c-1.8-0.9-3.4-2.1-4.6-3.7c-1.3-1.6-2.2-3.4-2.9-5.5s-1-4.4-1-6.9s0.3-4.8,1-6.9
		c0.7-2.1,1.6-4,2.9-5.5c1.3-1.6,2.8-2.8,4.6-3.7s3.9-1.3,6.2-1.3c2.3,0,4.4,0.4,6.2,1.3c1.8,0.9,3.4,2.1,4.6,3.7
		c1.3,1.6,2.2,3.4,2.9,5.5c0.7,2.1,1,4.4,1,6.9c0,3.6-0.7,6.8-2,9.6c-1.4,2.8-3.3,4.9-5.8,6.3c0.9,1.2,1.9,2.4,2.9,3.6
		c1,1.2,2.2,2.3,3.6,3.4L139.4,174.9z M133,163.5c1.5-0.8,2.7-1.9,3.7-3.2s1.7-2.9,2.2-4.7s0.7-3.7,0.7-5.7s-0.2-3.9-0.7-5.7
		s-1.2-3.4-2.2-4.7s-2.2-2.4-3.6-3.2c-1.5-0.8-3.1-1.2-5.1-1.2c-2,0-3.6,0.4-5.1,1.2s-2.7,1.8-3.7,3.2c-1,1.3-1.7,2.9-2.2,4.7
		s-0.7,3.7-0.7,5.7s0.2,3.9,0.7,5.7s1.2,3.4,2.2,4.7s2.2,2.4,3.7,3.2s3.2,1.2,5.1,1.2C129.9,164.7,131.5,164.3,133,163.5z"/>
	<path class="st0" d="M172.1,167.2c-2.4-2.4-4.5-4.8-6.4-7.2s-3.8-4.9-5.6-7.6h-7v14.5h-3V133h11.5c1.5,0,2.9,0.2,4.2,0.7
		c1.3,0.4,2.4,1.1,3.3,1.9c0.9,0.8,1.6,1.8,2.1,3s0.8,2.6,0.8,4.1c0,2.7-0.8,4.9-2.4,6.5s-3.7,2.6-6.3,3c1.7,2.4,3.5,4.7,5.3,6.8
		c1.8,2.1,3.7,4.3,5.8,6.3L172.1,167.2z M161.3,149.8c2.2,0,4.1-0.6,5.4-1.9c1.4-1.3,2.1-3,2.1-5.2s-0.7-4-2.1-5.2
		c-1.4-1.2-3.2-1.9-5.4-1.9H153v14.2L161.3,149.8L161.3,149.8z"/>
</g>
</svg>
