<?xml version="1.0" encoding="utf-8"?>
<!-- Generator: Adobe Illustrator 22.0.1, SVG Export Plug-In . SVG Version: 6.00 Build 0)  -->
<svg version="1.1" id="Layer_1" xmlns="http://www.w3.org/2000/svg" xmlns:xlink="http://www.w3.org/1999/xlink" x="0px" y="0px"
	 viewBox="0 0 181 181" style="enable-background:new 0 0 181 181;" xml:space="preserve">
<style type="text/css">
	.st0{fill:#FFFFFF;}
</style>
<g>
	<path class="st0" d="M168.8,45.3H96.6v-3h70.7c0-0.2,0-0.3,0-0.5c0-10.1-8.2-18.4-18.4-18.4c-0.9,0-1.9,0.1-2.8,0.2
		c-0.7,0.1-1.4-0.3-1.6-1c-3.7-10.3-13.6-17.3-24.6-17.3c-10.7,0-20.2,6.4-24.2,16.2c-0.2,0.4-0.4,0.7-0.8,0.8
		c-0.4,0.2-0.8,0.2-1.2,0c-2.1-0.9-4.3-1.3-6.6-1.3c-7.3,0-13.8,4.6-16.2,11.5l-2.8-1c2.8-8.1,10.5-13.5,19-13.5
		c2.2,0,4.3,0.3,6.4,1c4.8-10.2,15-16.8,26.4-16.8c11.9,0,22.6,7.2,27,18.1c0.7-0.1,1.3-0.1,2-0.1c11.8,0,21.4,9.6,21.4,21.4
		c0,0.7,0,1.4-0.1,2.1C170.2,44.8,169.6,45.3,168.8,45.3z"/>
	<path class="st0" d="M114.1,58.5H17.5c-0.5,0-1.1-0.3-1.3-0.8c-2.4-4.4-3.7-9.4-3.7-14.4c0-16.5,13.4-30,30-30
		c11.7,0.1,22.1,6.8,27.1,17.3c2.4-0.9,5-1.3,7.7-1.3c9.1,0,17.3,5.5,20.8,13.8c1.1-0.2,2.1-0.4,3.2-0.4c7.9,0,14.3,6.4,14.3,14.3
		C115.6,57.9,114.9,58.5,114.1,58.5z M18.4,55.5h94.1c-0.7-5.5-5.5-9.8-11.2-9.8c-1.3,0-2.5,0.2-3.7,0.6c-0.8,0.3-1.6-0.1-1.9-0.9
		C93,37.5,85.5,32.3,77.2,32.3c-2.7,0-5.4,0.5-7.8,1.6c-0.4,0.2-0.8,0.2-1.2,0c-0.4-0.2-0.7-0.4-0.8-0.8
		c-4.2-10.2-14-16.7-24.9-16.7c-14.9,0-27,12.1-27,27C15.5,47.6,16.5,51.8,18.4,55.5z"/>
</g>
<g>
	<g>
		<path class="st0" d="M63.2,116.4c-10.3,0-18.7,8.4-18.7,18.7c0,10.3,8.4,18.7,18.7,18.7s18.7-8.4,18.7-18.7S73.5,116.4,63.2,116.4
			z M63.2,150.9c-8.7,0-15.7-7-15.7-15.7s7-15.7,15.7-15.7s15.7,7,15.7,15.7S71.9,150.9,63.2,150.9z"/>
		<path class="st0" d="M118.2,116.2c-10.3,0-18.7,8.3-18.7,18.7c0,10.3,8.4,18.7,18.7,18.7c10.3,0,18.7-8.4,18.7-18.7
			S128.5,116.2,118.2,116.2z M118.2,150.7c-8.7,0-15.7-7-15.7-15.7s7-15.7,15.7-15.7s15.7,7,15.7,15.7S126.9,150.7,118.2,150.7z"/>
	</g>
	<path class="st0" d="M127.4,178.9c-4.9,0-7.6-1.4-13-4.3l-0.9-0.5c-9.6-5.2-14.1-16.2-16.8-22.8c-0.2-0.5-0.4-1.1-0.6-1.5
		c-1.4-3.4-1.6-5.6-0.5-7c1.1-1.5,3.2-1.3,3.8-1.2c1.8,0.2,2.7,1.9,4.3,4.9c1.1,2.1,2.7,5,5.1,8.6c4.9,7.1,16.4,4.7,30.9,0.8
		c9.8-2.6,15.3-5.2,16.2-7.5c0.3-1.3,0.6-13,0.4-21.6c-0.1-6-2.1-6.7-5.7-8c-0.5-0.2-1-0.4-1.6-0.6l-0.2-0.1
		c-4.1-1.6-10.3-4.1-57-4.1c-44.5,0-57.1,3.9-62.5,5.6c-0.3,0.1-0.7,0.2-1,0.3c-2.5,0.8-3.3,1.5-3.4,1.7c-0.1,0.9-0.9,11.6-0.8,20
		c0.1,7.2,2.1,8.3,3.9,9.2c0.2,0.1,0.4,0.2,0.6,0.3c1.9,1.1,4.7,2.2,17.4,6.1c12.4,3.8,19.8,2.2,23.2,0.9c2.7-1.1,5.3-5.8,7.4-9.7
		l0.1-0.2c2.3-4.2,4.4-6.2,6.7-6.2c2.9,0,3.2,2.4,3.4,3.2c0.2,1.1-0.1,3.1-5.3,14.3c-3.9,8.5-10.4,14.5-19.1,17.8
		c-8,3-18.8,0.9-28.4-1c-1.2-0.2-2.4-0.5-3.6-0.7c-11.1-2.1-18.9-10.2-22.1-16.5c-3.7-7.1-1.8-29.2-1.2-35.9l0,0
		c0-0.6,0.1-1.5,0.2-2.7c0.2-1.7,0.5-4.7,1.1-9.3c1-7.1,4.9-11.7,12.4-14.4c6-2.2,13.5-2.9,22.3-3.8c1.5-0.2,3.1-0.3,4.7-0.5
		c19.7-2.1,60.7-2.2,86-0.1c24.8,2,31.3,7.4,36.3,13.1c5,5.8,5.1,38.6,4.7,46.9c-0.4,7.1-4.7,19.6-30,24.1
		C136.2,178.1,131.2,178.9,127.4,178.9z M97.9,144.6c0,0-0.4,0.8,0.9,4c0.2,0.5,0.4,1,0.6,1.6c2.5,6.2,6.8,16.6,15.4,21.3l0.9,0.5
		c8.8,4.8,9.4,5.1,28.4,1.7c17.2-3.1,27-10.7,27.5-21.3c0.6-11.6-0.3-40.6-4-44.8c-4.6-5.2-10.6-10.1-34.3-12.1
		c-25.1-2.1-65.8-2-85.4,0.1c-1.6,0.2-3.2,0.3-4.7,0.5c-8.6,0.9-15.9,1.6-21.6,3.7l0,0c-6.4,2.3-9.6,6-10.4,12
		c-1,7.4-1.3,10.8-1.3,11.6c0,0.1,0,0.2,0,0.3c-1.2,12.6-1.8,29.1,0.8,34.2c2.9,5.7,9.9,13,20,14.9c1.2,0.2,2.4,0.5,3.6,0.7
		c9.2,1.8,19.5,3.8,26.7,1.1c8-3,13.9-8.5,17.5-16.3c4.7-10.2,5.1-12.3,5.1-12.7c0-0.3-0.1-0.4-0.1-0.5c0,0-0.1,0-0.3,0
		c-0.4,0-1.8,0.3-4,4.6l-0.1,0.2c-2.4,4.5-5.2,9.6-9,11.1c-3.7,1.4-11.9,3.2-25.2-0.8c-12.9-3.9-15.8-5-18-6.3
		c-0.2-0.1-0.3-0.2-0.5-0.3c-2.7-1.5-5.3-3.6-5.5-11.8c-0.1-8.4,0.7-18.9,0.8-20.2c-0.1-1.1,0.7-2.9,5.6-4.4
		c0.3-0.1,0.6-0.2,0.9-0.3c5.5-1.7,18.4-5.7,63.4-5.7c47.3,0,53.6,2.5,58.1,4.3l0.2,0.1c0.5,0.2,1,0.4,1.5,0.6
		c3.9,1.4,7.5,2.7,7.7,10.8c0.1,4.3,0.2,20.9-0.6,22.8c-0.6,1.6-2,4.9-18.2,9.3c-15.7,4.2-28.2,6.7-34.2-2c-2.5-3.7-4.1-6.7-5.2-8.9
		c-0.8-1.5-1.7-3.1-2.1-3.4C98.1,144.4,97.9,144.6,97.9,144.6L97.9,144.6z M83.6,144.9L83.6,144.9L83.6,144.9z M24.8,121.1
		L24.8,121.1L24.8,121.1z M24.8,121.1L24.8,121.1L24.8,121.1z"/>
</g>
</svg>
