<?xml version="1.0" encoding="utf-8"?>
<!-- Generator: Adobe Illustrator 22.0.1, SVG Export Plug-In . SVG Version: 6.00 Build 0)  -->
<svg version="1.1" id="Layer_1" xmlns="http://www.w3.org/2000/svg" xmlns:xlink="http://www.w3.org/1999/xlink" x="0px" y="0px"
	 viewBox="0 0 181 181" style="enable-background:new 0 0 181 181;" xml:space="preserve">
<style type="text/css">
	.st0{fill:#FFFFFF;}
</style>
<g>
	<title>Layer 1</title>
	<path class="st0" d="M118.5,176h-56c-7.8,0-14.2-6.4-14.2-14.2V19.2C48.3,11.4,54.7,5,62.5,5h56c7.8,0,14.2,6.4,14.2,14.2v142.6
		C132.8,169.6,126.4,176,118.5,176z M62.5,8.5c-5.9,0-10.7,4.8-10.7,10.7v142.6c0,5.9,4.8,10.7,10.7,10.7h56
		c5.9,0,10.7-4.8,10.7-10.7V19.2c0-5.9-4.8-10.7-10.7-10.7H62.5z"/>
	<g id="svg_26" transform="matrix(0.4568268555780618,0,0,0.43954105474383925,-406.21664198456654,-385.90579760242235) ">
		<path class="st0" d="M1142.5,1128.9h-109.4c-2.1,0-3.8-1.8-3.8-4V1052c0-1.4,0.7-2.6,1.8-3.4l54.7-36.5c1.3-0.8,2.9-0.8,4.1,0
			l54.7,36.5c1.1,0.7,1.8,2,1.8,3.4v72.9C1146.3,1127.1,1144.6,1128.9,1142.5,1128.9z M1036.9,1120.9h101.7v-66.7l-50.9-33.9
			l-50.9,33.9v66.7H1036.9z"/>
		<g id="svg_28">
			<path id="svg_29" class="st0" d="M1115.2,1080.1h-23.3v23.3h-8.2v-23.3h-23.3v-8.2h23.3v-23.3h8.2v23.3h23.3V1080.1z"/>
		</g>
	</g>
</g>
</svg>
